<?xml version="1.0" encoding="UTF-8" standalone="no"?>
<!-- Created with Inkscape (http://www.inkscape.org/) -->

<svg
   xmlns:dc="http://purl.org/dc/elements/1.1/"
   xmlns:cc="http://creativecommons.org/ns#"
   xmlns:rdf="http://www.w3.org/1999/02/22-rdf-syntax-ns#"
   xmlns:svg="http://www.w3.org/2000/svg"
   xmlns="http://www.w3.org/2000/svg"
   xmlns:sodipodi="http://sodipodi.sourceforge.net/DTD/sodipodi-0.dtd"
   xmlns:inkscape="http://www.inkscape.org/namespaces/inkscape"
   width="409.35739mm"
   height="279.72888mm"
   viewBox="0 0 409.3574 279.72889"
   version="1.1"
   id="svg8"
   inkscape:version="0.92.1 r15371"
   sodipodi:docname="crab05.svg">
  <defs
     id="defs2" />
  <sodipodi:namedview
     id="base"
     pagecolor="#ffffff"
     bordercolor="#666666"
     borderopacity="1.0"
     inkscape:pageopacity="0.0"
     inkscape:pageshadow="2"
     inkscape:zoom="0.22431634"
     inkscape:cx="1334.0034"
     inkscape:cy="703.85307"
     inkscape:document-units="mm"
     inkscape:current-layer="layer1"
     showgrid="false"
     fit-margin-top="0"
     fit-margin-left="0"
     fit-margin-right="0"
     fit-margin-bottom="0"
     inkscape:window-width="1366"
     inkscape:window-height="706"
     inkscape:window-x="-8"
     inkscape:window-y="-8"
     inkscape:window-maximized="1"
     inkscape:snap-global="false" />
  <metadata
     id="metadata5">
    <rdf:RDF>
      <cc:Work
         rdf:about="">
        <dc:format>image/svg+xml</dc:format>
        <dc:type
           rdf:resource="http://purl.org/dc/dcmitype/StillImage" />
        <dc:title></dc:title>
      </cc:Work>
    </rdf:RDF>
  </metadata>
  <g
     inkscape:label="Layer 1"
     inkscape:groupmode="layer"
     id="layer1"
     transform="translate(269.78901,8.4400434)">
    <path
       style="fill:#a30506; stroke: #a30506; stroke-width:0.69037092"
       d="m -172.38662,269.32882 c -4.2841,-2.46657 -7.8941,-6.18308 -7.8941,-8.12701 0,-0.80436 -0.28,-1.46247 -0.6223,-1.46247 -0.3422,0 -1.0364,-1.66545 -1.5427,-3.70098 -0.5062,-2.03554 -1.3941,-5.14919 -1.973,-6.91922 -2.8267,-8.64219 -2.6195,-22.62473 0.4338,-29.286 2.9825,-6.50668 4.81,-9.97464 5.3703,-10.19109 0.3054,-0.11801 0.5653,-0.55247 0.5774,-0.96547 0.1004,-3.4093 22.0025,-16.15509 33.43,-19.45433 1.9551,-0.56446 3.745,-1.29379 3.9774,-1.62073 0.5953,-0.83723 -0.1515,-0.75973 -6.3792,0.66194 -4.7657,1.08794 -6.4741,1.17606 -12.7428,0.65722 -3.9815,-0.32953 -7.875,-0.89491 -8.652,-1.25637 -2.1791,-1.01372 -5.6008,-0.7795 -6.8539,0.46916 -0.6217,0.61951 -1.7057,2.71941 -2.4089,4.66645 -0.7031,1.94704 -1.8512,3.97804 -2.5513,4.51334 -0.7,0.53529 -1.7965,2.78048 -2.4366,4.9893 -0.8195,2.82749 -2.1196,5.05252 -4.3933,7.51823 -2.8878,3.13164 -4.1205,3.8466 -11.6506,6.75728 -4.6316,1.79029 -8.9635,3.2711 -9.6263,3.29069 -2.6364,0.0779 -7.7719,8.77784 -8.4804,14.36666 -0.1411,1.11187 -0.6017,2.59843 -1.0239,3.30347 -0.4222,0.70503 -0.9956,2.64802 -1.2742,4.31776 -0.4321,2.58967 -0.1675,3.67759 1.8007,7.40195 1.269,2.40134 2.9452,4.80054 3.7247,5.33155 2.0679,1.40858 0.864,2.48095 -2.0343,1.81192 -5.4927,-1.26795 -8.3399,-8.16038 -8.4324,-20.41296 -0.062,-8.16788 1.6166,-15.35475 4.2114,-18.03526 0.9832,-1.01563 1.7876,-2.28165 1.7876,-2.81338 0,-1.37493 3.8843,-9.49393 6.1218,-12.79591 3.7963,-5.60245 21.8344,-20.32151 28.6367,-23.36749 1.401,-0.62737 3.0751,-1.70724 3.7202,-2.3997 1.2027,-1.29101 11.5493,-4.10179 22.2411,-6.04206 6.4525,-1.17095 24.9984,-1.37936 27.3039,-0.30682 2.8907,1.34475 15.0073,0.35746 14.8737,-1.21194 -0.017,-0.19439 -1.0069,-1.34652 -2.2007,-2.56029 l -2.1707,-2.20685 -8.7214,-0.16685 c -4.7968,-0.0918 -10.7574,-0.22699 -13.2459,-0.30047 -2.4884,-0.0735 -4.9776,0.10985 -5.5316,0.40744 -0.5539,0.29758 -13.6793,0.63489 -29.1676,0.74958 -26.8495,0.19881 -28.4766,0.14302 -34.9511,-1.19841 l -6.7905,-1.40693 -5.8111,1.71647 c -6.6027,1.95031 -12.2282,2.17761 -19.016,0.76832 -2.3902,-0.49626 -5.056,-1.46545 -5.9239,-2.15377 -1.0108,-0.80164 -4.0389,-1.63727 -8.4245,-2.32479 -8.3286,-1.30563 -11.7707,-2.48783 -12.4198,-4.26559 -0.2705,-0.7407 -0.3477,-1.47198 -0.1715,-1.62507 0.1761,-0.15308 2.2892,-0.0569 4.6956,0.2138 7.1873,0.80838 18.1079,0.51683 21.7769,-0.5814 1.8327,-0.54857 6.7975,-1.38253 11.0329,-1.85323 6.9848,-0.77624 8.0371,-0.752 11.3174,0.26071 3.2151,0.99256 4.4525,1.03204 11.1461,0.35564 8.3263,-0.84139 17.9696,-0.51206 20.5813,0.70289 1.1655,0.54218 3.5556,0.6599 7.6842,0.37847 14.759,-1.00607 25.611,-1.16528 30.3662,-0.4455 l 4.9487,0.74908 3.6324,-2.75989 c 1.9979,-1.51793 3.6475,-3.10419 3.6658,-3.52501 0.019,-0.43674 -1.4762,-0.92954 -3.4839,-1.14822 -1.9345,-0.21071 -6.0165,-0.67091 -9.0709,-1.02268 -3.0545,-0.35176 -11.2184,-0.57426 -18.1419,-0.49442 -19.2618,0.22208 -32.2267,-1.30987 -38.5559,-4.55581 -1.7639,-0.90462 -3.2305,-1.14376 -5.4371,-0.8865 -3.084,0.35955 -8.4574,-0.60934 -12.0823,-2.17857 -4.4313,-1.9183 -10.4032,-6.40582 -12.232,-9.19152 -1.0575,-1.61067 -3.0172,-4.12039 -4.355,-5.57716 -7.0561,-7.68344 -9.6097,-17.79105 -6.5037,-25.743123 0.8057,-2.06263 1.0189,-3.94721 0.6762,-5.97623 -1.1759,-6.96182 -0.4132,-16.86961 1.7888,-23.2385 0.8125,-2.34974 1.0482,-2.85938 3.6548,-7.9019 0.8741,-1.691009 1.5893,-3.450779 1.5893,-3.910609 0,-0.9723 2.7565,-3.26688 4.6044,-3.83285 1.9881,-0.60893 2.1943,0.51942 0.4476,2.44958 -3.8344,4.23718 -6.1829,19.008449 -4.1959,26.390579 2.9529,10.97026 2.8688,10.81864 8.4,15.15582 2.8509,2.23543 5.6631,4.663793 6.2494,5.396333 0.5864,0.73253 1.5027,1.5635 2.0364,1.84659 0.5336,0.28311 0.9703,0.81768 0.9703,1.18794 0,0.37027 0.596,1.44205 1.3244,2.38171 1.9194,2.47597 3.6946,7.54825 4.2545,12.15665 0.3588,2.95291 1.051,4.68803 2.623,6.5743 3.6578,4.38908 4.6883,4.60046 19.1041,3.91879 12.0587,-0.57022 12.9521,-0.52774 19.9703,0.94938 4.0408,0.85047 8.8019,2.11052 10.5803,2.80012 11.8018,4.57634 13.5127,4.30918 4.5793,-0.7151 -3.5911,-2.0197 -8.6952,-5.40954 -11.3424,-7.53297 -2.6473,-2.12342 -5.0514,-3.8677 -5.3425,-3.87616 -0.2912,-0.008 -0.8832,-0.5902 -1.3158,-1.29275 -0.7428,-1.20636 -0.6056,-1.2558 2.468,-0.88962 4.2475,0.50605 4.9068,-0.51067 1.7069,-2.63216 -2.0327,-1.34769 -2.5828,-2.21889 -2.8882,-4.57361 -0.2074,-1.59985 -0.9164,-3.42673 -1.5755,-4.05977 -0.6591,-0.63301 -1.1983,-1.80528 -1.1983,-2.60504 0,-1.33985 0.2327,-1.41993 2.9619,-1.01912 3.4491,0.50649 3.8517,-0.38597 1.6661,-3.69336 -0.9756,-1.476453 -1.0671,-2.031163 -0.3702,-2.244813 1.6705,-0.51214 0.9432,-1.75535 -2.1348,-3.64905 -3.1348,-1.92862 -5.0849,-4.92104 -5.0849,-7.80257 0,-1.86117 -1.4057,-4.4803 -4.5471,-8.47212 -1.1645,-1.4798 -2.1173,-3.47369 -2.1173,-4.43085 0,-2.09556 -1.2462,-6.21161 -2.8131,-9.29161 -1.6858,-3.31352 -2.3777,-6.575859 -3.0717,-14.482089 -1.0388,-11.83624 -0.3929,-14.98152 2.2312,-10.86492 0.65,1.01961 1.7044,1.9419 2.3432,2.04949 1.7755,0.29908 6.1409,-4.02606 7.1721,-7.10594 1.9341,-5.77612 5.9564,-11.73152 10.9828,-16.26104 5.816,-5.24101 16.353,-12.0018905 20.5778,-13.2032805 1.6138,-0.45892 4.3467,-1.36886 6.0731,-2.02207 1.7265,-0.65322 3.7968,-1.18767 4.6007,-1.18767 0.8039,0 3.1415,-0.57556 5.1946,-1.27901 4.2531,-1.45716 20.8211,-2.80404 26.5131,-2.15535 8.0533,0.91779 11.891498,4.58707 5.7125,5.46106 -4.2271,0.59792 -7.2611,1.48576 -7.5372,2.20561 -0.2465,0.64279 6.3117,2.20417 9.258,2.20417 1.7892,0 2.987698,1.64416 1.8925,2.5961805 -0.3662,0.31827 -1.8266,0.64531 -3.2454,0.72674 -3.8862,0.22303 -11.1353,3.26205 -15.3111,6.41882 -2.0439,1.54517 -5.4772,3.96796 -7.6294,5.38398 -2.1523,1.41604 -7.1153,5.00025 -11.0288,7.96492 -6.186,4.68612 -7.9572,5.65312 -13.5583,7.40195 -6.2461,1.95024 -8.2229,3.29894 -4.8353,3.29894 1.4669,0 1.6292,0.28807 1.4505,2.57459 -0.2906,3.71681 0.358,5.47101 2.0229,5.47101 2.1494,0 2.3273,0.82236 0.7776,3.59427 -0.775,1.38621 -1.7663,4.98235 -2.2029,7.991389 -0.4366,3.00907 -0.9836,6.55718 -1.2156,7.8847 -0.3664,2.09762 -0.2303,2.41369 1.0398,2.41369 0.8037,0 2.374,0.41153 3.4894,0.91453 2.2651,1.02151 3.2179,0.83315 7.1803,-1.41938 1.6979,-0.96522 3.0648,-2.40305 3.5836,-3.76941 1.9308,-5.08519 7.9651,-8.12566 6.8948,-3.47402 -0.4267,1.85433 -0.3267,1.95544 1.9349,1.95544 1.3116,0 3.2707,-0.50687 4.3535,-1.12638 1.0828,-0.61951 2.5904,-1.42383 3.3502,-1.78737 0.8989,-0.43013 1.4392,-1.48866 1.5469,-3.03086 0.091,-1.303449 0.6342,-2.860769 1.2071,-3.460709 0.5728,-0.59995 0.9339,-1.64288 0.8024,-2.3176 -0.305,-1.56451 1.1296,-3.08099 2.9144,-3.08099 1.5584,0 8.8064,-2.61903 8.7947,-3.17794 -0.01,-0.36789 -4.366,-2.17715 -8.6377,-3.58573 -1.2931,-0.42639 -5.2151,-0.97725 -8.7155,-1.22412 -5.7164,-0.40317 -6.582,-0.31426 -8.5003,0.87303 -2.2534,1.39473 -4.4988,1.74458 -4.4988,0.70092 0,-0.34155 0.7497,-0.96311 1.6661,-1.38125 0.9163,-0.41814 1.9113,-1.11945 2.211,-1.55844 0.5643,-0.82655 2.78,-1.30191 9.0253,-1.93631 3.7536,-0.3813 10.0299,0.55792 12.6443,1.89215 0.8145,0.41568 2.3961,1.10049 3.5145,1.52179 1.9249,0.72505 2.0891,0.65061 3.0715,-1.39332 1.1593,-2.41174 2.3325,-3.31188 3.0329,-2.32695 0.8003,1.12567 2.5991,0.71378 2.5991,-0.59516 0,-1.67693 1.103298,-2.18029 5.923898,-2.7026 7.0105,-0.75958 18.3839,-2.36245 20.0765,-2.82942 0.8916,-0.24596 7.4452,-0.23629 14.5637,0.0215 l 12.9426,0.46868 0.807,1.85829 c 0.6185,1.4244 1.2796,1.85828 2.8312,1.85828 1.7085,0 2.1447,0.37662 2.7955,2.41369 0.4241,1.32752 0.773,2.92056 0.7753,3.54007 0.01,1.63996 1.1046,1.38346 3.1575,-0.73727 2.2196,-2.29285 5.412,-3.77567 9.172,-4.26024 3.188,-0.41084 13.3052,1.11197 14.5445,2.1892 1.3193,1.14674 0.021,1.55656 -2.5066,0.79087 -3.5265,-1.0686 -12.1819,-0.90111 -14.8247,0.28685 -2.2148,0.99551 -6.5131,4.66277 -6.555,5.59247 -0.013,0.26552 1.1958,0.48274 2.6838,0.48274 2.225,0 3.2113,0.47628 5.5536,2.68169 1.8374,1.73001 2.8482,3.2978 2.8482,4.41777 v 1.73607 h 6.9964 c 6.5576,0 7.0103,-0.0852 7.2197,-1.36043 0.1335,-0.81237 0.8533,-1.4386 1.7869997,-1.55445 1.1732,-0.1456 1.883,0.39097 2.8426,2.14856 0.855,1.56622 2.1617,2.66323 3.9429,3.310109 1.4652,0.53216 3.71629998,1.66522 5.0025,2.5179 1.2861,0.85269 2.6581,1.55035 3.0488,1.55035 0.3908,0 1.795,-0.97263 3.1205,-2.1614 l 2.4101003,-2.161369 -1.1116003,-5.53574 c -1.2947,-6.44758 -2.1024,-8.00544 -4.5738,-8.82219 -2.2099,-0.73033 -2.3047,-1.96799 -0.2731,-3.56612 1.1753,-0.92459 1.4304,-1.68122 1.0933,-3.24331 -0.321,-1.48702 -0.135,-2.13904 0.6884,-2.41371 0.6205,-0.20695 1.1282,-0.60986 1.1282,-0.89534 0,-0.56682 -9.9093,-3.6373 -14.0693,-4.35948 -1.4254,-0.24746 -3.7578997,-1.04163 -5.1832997,-1.76485 -3.2906,-1.66948 -10.7355,-7.88816 -12.6648,-10.57878 -1.0023,-1.39777 -3.1819,-2.76569 -6.8079,-4.2727 -2.9335,-1.21918 -7.4995,-3.62485 -10.1468,-5.3459405 -2.6472,-1.72108 -5.7295,-3.6428 -6.8495,-4.27047 -3.6845,-2.06491 -1.9999,-5.02004 2.091,-3.66808 2.3596,0.7798 9.2014,0.82472 9.2014,0.0604 0,-0.50409 -5.7279,-2.5422 -10.1816,-3.62285 -0.9164,-0.22233 -1.6661,-0.81252 -1.6661,-1.31151 0,-1.79273 3.3949,-2.77855 12.0953,-3.51226 4.8197,-0.40645 9.3182,-0.54249 9.9966,-0.30233 1.5654,0.55424 8.3255,1.44465 16.4152997,2.16222 7.5214,0.66713 12.2463,2.5805 23.1836003,9.38818 3.9958,2.48713 7.7445,4.73927 8.3304,5.00477 0.586,0.26551 1.6485,0.73278 2.3612,1.03841 0.7985,0.34239 1.2211,1.1452805 1.1012,2.0918405 -0.1263,0.99662 0.9477,2.85166 3.0576,5.28139 1.7887,2.05985 3.8429,4.88386 4.5649,6.27558 1.3798,2.65972 3.3092,3.40664 3.3092,1.28106 0,-0.68711 0.3872,-1.45731 0.8604,-1.71152 1.3653,-0.73345 3.3227,1.94632 3.8461,5.26535 0.2634,1.67014 0.7675,3.35548 1.1203,3.7452 0.3528,0.38974 1.5664,3.10138 2.697,6.02592 3.1323,8.10239 2.488,11.46948 -5.3869,28.152379 -1.0026,2.12403 -2.0722,5.59973 -2.377,7.72377 -0.7347,5.12054 -2.9189,11.7048 -4.1861,12.61899 -0.6706,0.48373 -1.0167,2.15364 -1.0167,4.905 v 4.17159 l 2.6826,-2.04734 c 1.4754,-1.12604 2.9493,-1.80773 3.2753,-1.5149 0.9739,0.87497 -1.0684,6.48935 -3.1777,8.735413 -1.8765,1.99812 -1.8997,2.11204 -0.5209,2.55538 1.8136,0.58315 1.8345,1.82722 0.064,3.79788 -0.7585,0.84424 -1.63,2.2305 -1.9367,3.08058 -0.4815,1.33483 -0.3692,1.47866 0.8238,1.05488 2.3206,-0.82437 3.5345,-0.71744 3.7864,0.33359 0.3311,1.38112 -4.3165,6.5217 -6.929,7.66388 -1.6548,0.72351 -7.1439,3.85093 -9.8539,5.61434 -0.1696,0.11042 -0.085,0.3947 0.1872,0.63174 0.2727,0.23703 2.0777,-0.18021 4.011,-0.92721 5.6711,-2.19119 12.1284,-4.07787 16.1034,-4.70506 2.0363,-0.32131 5.3685,-0.88437 7.4049,-1.25125 3.6535,-0.65825 8.9618,-0.75923 20.9234,-0.39802 4.8196,0.14554 6.3321,-0.0295 7.1459,-0.82704 1.4216,-1.39316 3.4012,-5.6991 3.4012,-7.39802 0,-0.77098 0.4065,-1.75511 0.9034,-2.18697 0.5221,-0.45387 0.9456,-2.74882 1.0035,-5.43882 0.055,-2.559513 0.3507,-5.630753 0.6566,-6.824983 0.6471,-2.52564 6.355476,-9.669696 7.325876,-9.669696 0.9779,0 -2.321976,4.032346 -3.878776,7.472576 -1.1384,2.51584 -1.2682,3.67162 -0.7071,6.29939 0.378,1.770033 0.7597,3.942363 0.8483,4.827373 0.1559,1.55768 0.3146,1.60326 4.9649,1.42615 7.0062,-0.26683 9.5589,-1.14822 10.799302,-3.72872 0.5715,-1.18889 1.0391,-3.022763 1.0391,-4.075253 0,-1.05249 0.3332,-2.09265 0.7405,-2.31143 1.447,-0.77739 0.8434,-8.54651 -0.9256,-11.91351 -1.952002,-3.71517 -2.868602,-4.18051 -5.714702,-2.90122 -1.9448,0.87417 -2.8613,1.71755 -6.6565,6.12548 -2.7709,3.21826 -2.4614,0.48306 0.5298,-4.68212 3.8613,-6.66773 4.81,-10.17443 4.8278,-17.84558 0.013,-5.216519 -0.3275,-6.965499 -2.312,-11.907469 -2.7626,-6.87923 -2.8812,-8.04562 -0.8183,-8.04562 1.058,0 1.8656,0.73216 2.6622,2.41369 1.1368,2.39954 2.2199,4.57066 4.736,9.4938 1.528702,2.991 1.967502,5.146069 3.014702,14.803909 0.4222,3.89408 1.2125,7.68187 1.7562,8.41733 2.786,3.76835 3.7963,12.78561 1.8695,16.68495 -0.8552,1.7307 -1.6051,4.726533 -1.7722,7.080143 -0.075,1.06201 -0.9818,3.23433 -2.0143,4.82735 -1.0324,1.59304 -2.738002,4.34463 -3.790102,6.11466 -2.7284,4.59016 -10.8118,9.61887 -19.0404,11.84497 -2.5386,0.68676 -5.1706,1.65442 -5.8489,2.15035 -0.6784,0.49593 -2.7328,1.29497 -4.5655,1.77564 -1.8327,0.48068 -3.7299,1.13329 -4.2159,1.45026 -1.0872,0.70896 -7.6372,2.03752 -15.0368,3.04994 -3.0545,0.41793 -10.8018,0.7294 -17.2163,0.69217 -9.7318,-0.0565 -11.6626,0.0869 -11.6626,0.86587 0,1.45543 -2.6262,1.84054 -9.2704,1.35945 -6.0413003,-0.43742 -6.1381003,-0.42101 -7.4959003,1.2712 -0.7566,0.9429 -2.3272,2.70493 -3.49040002,3.91564 -3.09869998,3.22547 -2.27199998,4.41336 2.68290002,3.85508 2.1312,-0.24012 5.0411,-0.69863 6.4665,-1.01891 1.4255003,-0.32027 5.5907003,-1.18682 9.2561003,-1.92566 3.6654,-0.73883 7.9764,-1.64826 9.58,-2.02096 1.6037,-0.3727 6.2877,-0.78767 10.409,-0.92216 4.1213,-0.13448 9.9734,-0.55492 13.0047,-0.9343 10.5808,-1.32424 19.9287,-1.81699 22.5473,-1.18852 2.1763,0.52232 3.0816,0.3618 6.0304,-1.06919 3.4261,-1.66264 3.5625,-1.67498 10.8715,-0.98383 4.0711,0.38497 7.7994,0.98664 8.2851,1.33705 2.317202,1.67159 8.142202,1.8392 19.607702,0.56419 6.3127,-0.702 13.3049,-1.68805 15.5383,-2.19123 4.2589,-0.95953 5.5119,-0.61691 5.0718,1.38684 -0.1759,0.80135 -1.2351,1.37658 -3.2165,1.74696 -2.6045,0.48686 -4.915,1.15597 -10.3589,2.99995 -4.2943,1.45456 -6.4011,1.98895 -11.3408,2.8765 -2.9794,0.53531 -6.6448,0.97966 -8.1454,0.98743 -1.5006,0.008 -4.2279,0.60566 -6.0606,1.32864 -2.731002,1.07734 -4.668102,1.2936 -10.737002,1.19867 -11.7543,-0.18386 -12.2262,-0.1354 -15.072,1.54785 -1.4848,0.87827 -3.8927,1.87359 -5.3508,2.21182 -3.2728,0.75912 -24.0399,-0.23295 -26.3725,-1.25986 -1.287,-0.56654 -2.2129,-0.46754 -4.443,0.47509 -1.5494,0.65492 -5.6495,1.53265 -9.1113,1.95051 -10.5184,1.26963 -25.1835003,3.45003 -31.9662003,4.75274 -3.5307,0.67812 -7.5542997,1.07287 -8.9412997,0.87723 -2.1787,-0.30733 -2.7954,-0.073 -4.5333,1.72218 -3.6025,3.72138 -2.2387,4.06755 8.4165997,2.13637 3.0545,-0.55361 6.3515,-1.4431 7.32679998,-1.97666 1.3314,-0.72841 4.28310002,-0.99129 11.84770032,-1.05519 11.306,-0.0955 18.6473,0.50082 23.1442,1.87993 1.6704,0.51227 3.954,0.9314 5.0748,0.9314 1.1207,0 2.4166,0.3969 2.8798,0.882 0.4632,0.4851 2.1916,1.03934 3.841,1.23164 4.9128,0.57277 10.867,3.62435 15.2086,7.79451 2.1918,2.1053 3.9851,4.06088 3.9851,4.34571 0,0.28483 1.4162,1.0982 3.1471,1.80748 3.8148,1.56325 6.9054,3.89989 10.2555,7.75364 4.2097,4.8426 8.6407,13.87355 7.7722,15.84079 -0.299,0.67713 0.6054,2.68369 2.4042,5.33437 1.5858,2.33692 3.2608,5.26269 3.7222,6.50171 2.9306,7.86946 3.7992,10.74931 3.7992,12.59562 0,4.10959 -8.7286,15.08126 -11.9981,15.08126 -2.4367,0 -1.3468,-2.74445 2.8954,-7.29043 2.9322,-3.14215 1.7489,-10.83606 -2.0193,-13.13028 -0.8064,-0.49097 -1.4663,-1.38954 -1.4663,-1.99683 0,-0.60728 -1.0792,-2.25629 -2.3982,-3.66448 -1.3191,-1.40818 -2.7353,-2.96383 -3.1471,-3.45701 -2.2113,-2.64811 -6.2879,-5.22205 -12.8418,-8.10831 -6.5244,-2.87327 -7.8771,-3.78767 -12.424,-8.3985 -2.8063,-2.8458 -5.5799,-6.24639 -6.1635,-7.55688 -0.5836,-1.31048 -1.6666,-2.54973 -2.4066,-2.75388 -1.019,-0.28112 -1.3454,-1.02725 -1.3454,-3.07482 0,-3.10858 -2.9595,-7.508 -5.0507,-7.508 -0.7121,0 -3.2826,0.62021 -5.712,1.37824 -6.7932,2.11954 -20.9808,2.39409 -32.55570032,0.62999 -4.88719998,-0.74485 -10.21869968,-1.63932 -11.84779968,-1.98772 -4.1115,-0.87929 -5.2704,-0.81842 -6.6115,0.34729 -1.6343,1.4206 -1.4887,1.83848 1.2804,3.67438 2.3716,1.57234 2.6624,1.60584 9.8114997,1.13014 7.37659998,-0.49084 15.879,0.0177 21.4366003,1.28192 2.9624,0.67395 15.6551,5.2993 21.7419,7.92297 5.1164,2.2054 13.2127,9.09833 15.683,13.35206 2.6234,4.51723 3.8919,8.45675 3.781,11.7418 -0.046,1.35371 0.5774,3.5869 1.3849,4.96263 2.7446,4.67628 1.7701,12.29335 -2.2834,17.84927 -1.5395,2.1101 -2.1724,3.78808 -2.1724,5.75979 0,2.63357 -0.8913,4.65334 -5.467,12.38839 -2.0548,3.47353 -5.4591,5.94561 -10.5734,7.67783 -3.2834,1.11213 -3.8817,1.16011 -4.2436,0.34031 -0.2714,-0.61473 0.2186,-1.16583 1.377,-1.54866 4.8347,-1.59777 9.6014,-7.32877 10.1783,-12.23743 0.3982,-3.38875 -1.0413,-11.11292 -2.4396,-13.09016 -3.1361,-4.43461 -5.8629,-10.16852 -5.8629,-12.32855 0,-1.2516 -0.4062,-2.84107 -0.9027,-3.53215 -0.7219,-1.00468 -0.6605,-2.26072 0.3059,-6.26683 1.4571,-6.03957 1.1489,-7.79727 -1.8903,-10.78289 l -2.326,-2.28497 -3.2539,1.00025 c -4.1104,1.26355 -20.7508003,4.16087 -23.8975003,4.16087 -2.87030002,0 -10.6113,-2.29501 -13.3193997,-3.94884 -1.081,-0.66019 -2.9808,-1.20035 -4.2217,-1.20035 -2.2942,0 -8.5957,-1.28857 -11.9547,-2.44456 -1.0181,-0.35041 -2.6842,-1.41825 -3.7024,-2.37299 -1.0182,-0.95474 -3.3169,-2.59775 -5.1083,-3.65115 l -3.2572,-1.91526 -3.7774,1.08284 c -6.1481,1.76238 -33.0095,2.54374 -42.735,1.24309 -2.6216,-0.35061 -3.8585,-0.20348 -5.3287,0.63382 -1.2911,0.73535 -2.3018,0.90203 -3.1039,0.51186 -2.4783,-1.20557 -5.2783,-0.13584 -8.118798,3.10179 -1.5194,1.73181 -4.3131,4.12317 -6.2082,5.31412 -3.3935,2.13261 -11.1744,5.57657 -12.599,5.57657 -0.4013,0 -1.6715,0.65933 -2.8227,1.46517 -2.8295,1.98059 -6.3721,2.96112 -14.898,4.12355 -7.6166,1.03844 -15.6762,1.12114 -20.4317,0.20967 -4.173,-0.79984 -6.1492,0.0795 -7.1038,3.16089 -0.6303,2.03467 -0.5688,3.05824 0.2912,4.84735 1.4526,3.02212 1.8239,15.27081 0.5068,16.7247 -0.3416,0.37708 -1.0379,1.80963 -1.5474,3.18342 -0.5095,1.3738 -2.0507,3.57955 -3.4249,4.90168 -5.2752,5.07545 -6.0319,10.02932 -2.5192,16.49181 1.2147,2.23458 3.0474,4.54067 4.0727,5.12463 1.0253,0.58397 1.8642,1.46292 1.8642,1.95321 0,1.46364 -2.487,1.01871 -6.1751,-1.10473 z m -3.8104,-12.48552 c -0.01,-3.00884 -0.1776,-5.46636 -0.3813,-5.46115 -1.3946,0.0356 -2.3193,1.48857 -2.687,4.22197 -0.3542,2.63235 -0.1535,3.46982 1.184,4.93978 0.8858,0.97351 1.6746,1.77003 1.7529,1.77003 0.078,0 0.1375,-2.46178 0.1314,-5.47063 z m 1.3985,-9.17237 c 4.663,-3.24825 7.8465,-8.91722 7.8465,-13.97277 0,-5.62561 -0.5677,-6.14123 -6.7613,-6.14123 -5.7654,0 -9.3724,1.28915 -9.8869,3.53357 -1.2918,5.63577 -1.1093,9.2521 0.7011,13.88884 1.0271,2.6309 1.8699,4.85586 1.8727,4.94436 0,0.0885 0.6257,0.16091 1.384,0.16091 0.7584,0 2.9381,-1.08616 4.8439,-2.41369 z m 224.355398,-3.50075 c 0.7974,-3.46601 0.5418,-5.67123 -0.6575,-5.67123 -0.8114,0 -1.1134,0.73695 -1.1208,2.7355 -0.01,1.50453 -0.2123,3.39151 -0.4595,4.19328 -0.3462,1.12321 -0.1931,1.37227 0.6675,1.08523 0.6143,-0.20489 1.3209,-1.25915 1.5703,-2.34278 z M -218.07942,230.22231 c 1.6142,-4.31946 3.4634,-8.31288 4.1092,-8.87426 1.3683,-1.18939 1.1705,-2.11396 -0.6587,-3.07804 -2.1729,-1.14525 -5.0558,2.5281 -6.8984,8.79008 -1.3229,4.49556 -1.4463,5.83534 -0.7729,8.39322 0.4407,1.67405 0.9103,2.94898 1.0436,2.83315 0.1333,-0.11582 1.563,-3.74468 3.1772,-8.06415 z m 271.459498,2.8263 c 0.5956,-1.23886 1.073,-4.26821 1.073,-6.80782 0,-4.21563 -0.1732,-4.72616 -2.1992,-6.48728 -2.1087,-1.83301 -2.4336,-1.90371 -7.9056,-1.72052 l -5.7066,0.19103 0.1829,4.37481 c 0.204,4.88315 1.3088,7.69757 4.1893,10.67323 1.6962,1.75216 2.4137,2.00864 5.6189,2.00864 3.4929,0 3.7273,-0.11025 4.7473,-2.23209 z m -228.477398,-7.78317 c 2.2399,-0.10254 4.6558,-0.20819 5.3685,-0.23478 1.0941,-0.0408 1.2958,-0.69307 1.2958,-4.19014 0,-4.60668 0.8672,-7.17291 3.0102,-8.90833 2.2274,-1.80374 1.5669,-4.20868 -2.0368,-7.41647 -1.1251,-1.00152 -3.5355,-0.13032 -5.6361,2.03706 -1.7279,1.78273 -5.7041,8.72478 -5.7041,9.95873 0,0.52567 -0.7858,2.13978 -1.7463,3.58691 -0.9605,1.44712 -1.9766,3.46264 -2.258,4.47893 -0.4905,1.77137 -0.4259,1.82766 1.5612,1.36115 1.1401,-0.26764 3.9056,-0.57052 6.1456,-0.67306 z m 267.036998,-2.69679 c -0.2078,-0.61951 -0.6115,-2.57459 -0.897,-4.34463 -0.2854,-1.77003 -1.7563,-5.24573 -3.2687,-7.72378 -2.3362,-3.82789 -3.0719,-4.534 -4.8917,-4.6948 -1.1781,-0.10409 -2.8084,0.24875 -3.623,0.78409 -0.8145,0.53535 -1.0746,0.98257 -0.5781,0.99383 0.4966,0.0113 2.1627,1.65819 3.7025,3.65984 7.5648,9.83411 7.1515,9.23765 7.9597,11.48636 0.4907,1.36536 2.0555,1.20762 1.5963,-0.1609 z m -291.825598,-8.1332 c 9.1909,-3.81464 12.5625,-7.08754 14.1706,-13.75599 0.5586,-2.31626 0.9269,-4.26159 0.8185,-4.32296 -2.5004,-1.41543 -5.7004,-3.45469 -6.8159,-4.34365 -2.6204,-2.08809 -4.5286,-1.43022 -9.7898,3.37513 -2.7213,2.48545 -5.4345,5.1231 -6.0295,5.86145 -1.276,1.58353 -6.8111,11.20017 -6.8111,11.83361 0,0.2402 0.6667,1.25048 1.4814,2.24506 2.032,2.48049 5.4082,2.24823 12.9758,-0.89265 z m 245.453198,0.54278 c 4.8779,-0.52998 6.6643,-1.25617 6.6643,-2.70908 0,-1.81303 -2.3711,-6.75904 -4.6479,-9.69527 -3.3778,-4.35598 -11.6454,-10.62986 -12.7465,-9.67271 -0.8911,0.77457 -1.3346,6.97888 -0.4989,6.97888 1.7813,0 3.8241,5.59715 3.8241,10.47761 0,5.04201 0.3062,5.79689 2.1679,5.3454 0.6404,-0.15528 2.997,-0.48146 5.237,-0.72483 z m -182.124298,-4.02932 c 6.1235,-0.93028 11.2086,-3.25991 12.6706,-5.80469 0.7554,-1.31478 1.4319,-4.73542 1.7573,-8.88521 0.5114,-6.52136 0.4702,-6.80242 -1.2282,-8.38893 -1.5804,-1.47631 -2.1716,-1.60961 -5.8736,-1.32444 -3.1605,0.24345 -6.5135,1.3556 -14.4395,4.78939 -15.0659,6.52703 -21.8006,9.92223 -21.8006,10.99039 0,0.51904 0.6695,1.44841 1.4877,2.06528 0.8183,0.61686 1.9315,2.24387 2.4738,3.61556 1.3543,3.42566 3.936,4.16078 13.4399,3.82687 4.0727,-0.14308 9.2534,-0.54099 11.5126,-0.88422 z m 23.1479,-7.83795 c 8.4296,-4.64674 15.496198,-14.17293 10.5136,-14.17293 -0.5603,0 -2.7878,-1.59303 -4.95,-3.54006 -2.1621,-1.94704 -4.454,-3.54007 -5.0931,-3.54007 -0.639,0 -2.1335,0.88155 -3.3211,1.95899 -1.9281,1.74934 -2.1658,2.42094 -2.2209,6.27557 -0.034,2.37412 -0.334,6.70612 -0.6667,9.62668 -0.5697,5.00129 -0.5216,5.3101 0.8267,5.3101 0.7874,0 2.9976,-0.86323 4.9115,-1.91828 z m 129.727198,-1.18488 c 4.4799,-0.67724 9.4782,-1.77783 11.1073,-2.44577 l 2.9619,-1.21443 0.2188,-4.33742 0.2189,-4.33742 -3.9213,-1.55891 c -8.0967,-3.21887 -14.2092,-4.88247 -20.4460003,-5.56466 -7.15010002,-0.78208 -18.9587997,-0.24775 -20.0026997,0.9051 -1.9268,2.12794 -2.3208,11.22093 -0.5799,13.38141 2.2392,2.77891 15.6233997,7.23163 20.0761997,6.67909 1.2218,-0.1516 5.8869003,-0.82975 10.3668003,-1.50699 z m 62.0394,0.94875 c 4.0598,-1.22888 4.3303,-1.65451 3.1738,-4.9946 -2.7856,-8.04548 -9.6375,-15.6879 -15.5262,-17.31751 -3.4928,-0.96659 -10.6005,-0.44499 -14.2069,1.04257 -3.3279,1.37265 -3.3808,3.75724 -0.1747,7.86042 4.0839,5.22634 8.2774,8.47135 14.7262,11.39535 6.8317,3.09758 7.8585,3.26976 12.0078,2.01377 z m -96.2066,-6.69576 c -0.3496,-0.97352 -0.5553,-4.27108 -0.4571,-7.32793 0.1939,-6.04152 -0.6177,-7.64674 -3.2675,-6.46164 -0.7447,0.33303 -2.187,0.91313 -3.2051,1.28911 -7.6266,2.81628 -8.7308,3.38727 -9.1326,4.72263 -0.5076,1.68734 0.4295,2.82762 3.4333,4.17782 1.201,0.53986 2.8914,1.66615 3.7564,2.50288 1.4864,1.43793 5.0837,2.68052 8.1322,2.80911 1.1677,0.0492 1.2798,-0.20997 0.7404,-1.71198 z m -162.457698,-3.33684 c 0.4216,-0.68473 0.7682,-1.77089 0.7702,-2.41368 0,-0.64278 0.7711,-2.00231 1.7091,-3.02118 1.9324,-2.09908 1.8721,-4.41238 -0.1766,-6.77313 -1.1608,-1.33773 -1.5,-1.41304 -3.0713,-0.68206 -0.9716,0.45196 -2.1796,1.13804 -2.6846,1.52464 -0.505,0.3866 -2.5909,1.71665 -4.6353,2.95567 -2.0444,1.23903 -3.7208,2.59049 -3.7252,3.00325 -0.013,1.1098 8.3294,6.54948 10.1476,6.61772 0.4948,0.0186 1.2445,-0.52649 1.6661,-1.21123 z m 125.427098,-2.54434 c 11.8251,-0.59172 14.0974,-1.11704 12.4221,-2.87169 -1.4129,-1.47979 -4.8022,-1.76806 -19.3455,-1.64539 -7.5344,0.0635 -15.1152,0.0893 -16.846,0.0572 -1.7309,-0.0321 -3.1471,0.20203 -3.1471,0.52024 0,0.31821 -0.8917,0.95641 -1.9817,1.41823 -3.7508,1.58936 -2.8241,2.2752 3.2479,2.40349 3.1726,0.067 7.2679,0.3382 9.1006,0.60259 1.8327,0.26439 3.6654,0.39562 4.0727,0.29164 0.4072,-0.104 6.0219,-0.45334 12.477,-0.77635 z m -32.9256,-2.60605 3.247,-2.47861 -2.3547,-1.83858 c -1.9463,-1.51966 -2.3972,-2.39679 -2.5999,-5.05681 -0.135,-1.77004 -0.2865,-3.43275 -0.3369,-3.69492 -0.05,-0.26217 -2.5076,-0.43858 -5.4603,-0.39202 -2.9526,0.0465 -6.393198,-0.11288 -7.645598,-0.35431 -1.9471,-0.37536 -2.7346,-0.0854 -5.4351,2.00114 l -3.1581,2.44011 5.548,4.50553 c 8.051498,6.53864 9.425798,7.35621 12.356898,7.35136 1.9471,-0.003 3.3994,-0.62084 5.8387,-2.48289 z m -56.363198,-1.97238 c 5.9115,-1.32952 20.0322,-7.10547 22.0061,-9.00136 1.0058,-0.9661 0.9509,-1.20624 -0.5467,-2.38838 -1.9165,-1.51279 -5.8091,-2.04481 -18.6275,-2.5459 -9.6453,-0.37705 -19.3425,0.77087 -25.7527,3.0485 -1.9082,0.67801 -4.2407,1.23718 -5.1834,1.2426 -3.7384,0.0215 -4.0843,0.91723 -1.8413,4.76771 2.3662,4.0621 3.9666,4.7555 12.7156,5.50956 8.9922,0.77501 11.3568,0.68818 17.2299,-0.63273 z m 109.493898,-0.29424 c 2.5625,-1.56011 10.1594,-4.85462 11.1944,-4.85462 1.6304,0 1.8707,-1.79122 0.4219,-3.14304 -2.359,-2.20096 -4.8668,-2.66928 -8.7933,-1.64212 -1.9412,0.5078 -4.631,0.92328 -5.9774,0.92328 -2.7932,0 -3.546,0.8729 -4.3387,5.03151 -0.4371,2.29239 -0.2901,2.93659 0.8396,3.68051 1.7891,1.17821 4.7224,1.18019 6.6535,0.005 z m -84.166498,-2.36111 c 2.4327,-2.11456 2.6984,-3.94664 0.6227,-4.2941 -1.3425,-0.22474 -7.6562,2.07391 -8.3407,3.03668 -0.233,0.3277 -1.4195,0.78594 -2.6367,1.0183 -3.4296,0.65478 -2.6182,1.51558 1.6746,1.77663 2.1382,0.13001 4.4451,0.28997 5.1265,0.35546 0.6814,0.0655 2.2805,-0.78635 3.5536,-1.89297 z m 52.402398,0.008 c 1.9387,0.0414 4.3579,0.13042 5.3761,0.1979 5.0732,0.33627 13.1799,-0.20984 14.3731,-0.96824 1.91,-1.21402 2.5332,-6.53702 0.8317,-7.10456 -1.2115,-0.40408 -26.2572,-0.53966 -30.0145,-0.16247 -1.0182,0.10221 -3.2674,0.23109 -4.9983,0.28639 -2.2653,0.0724 -3.1471,0.37351 -3.1471,1.07476 0,0.53581 -0.3964,1.52604 -0.881,2.20051 -0.6994,0.97349 -0.6613,1.45643 0.1849,2.34266 1.9848,2.07874 5.2202,2.86027 10.1298,2.44689 2.5412,-0.21397 6.2066,-0.3552 8.1453,-0.31384 z m 120.3602,-4.79162 c 2.5324,-0.56519 4.8993,-1.27606 5.2598,-1.57973 0.3754,-0.31621 -0.3518,-1.65764 -1.7019,-3.13943 -2.4767,-2.71805 -11.4463,-7.15071 -14.4698,-7.15071 -1.5158,0 -4.8472,2.58349 -4.8472,3.75906 0,0.29207 1.335,1.46355 2.9666,2.60329 1.6317,1.13974 3.6518,3.23973 4.4893,4.66665 1.0281,1.75161 1.8762,2.47649 2.6109,2.23144 0.5985,-0.19963 3.16,-0.82538 5.6923,-1.39056 z m -165.622098,-2.35392 c 3.9011,-2.60418 4.0605,-3.27407 1.0378,-4.36237 -2.4866,-0.89529 -7.0883,-0.40109 -7.6132,0.81763 -0.7189,1.669 -0.035,3.90039 1.2463,4.06379 0.7188,0.0917 1.4985,0.33329 1.7327,0.53685 0.7151,0.62162 1.3727,0.42856 3.5964,-1.0559 z m 142.828398,-1.76165 c 1.6779,-0.5363 2.65,-1.56878 3.9725,-4.21926 0.963,-1.93006 1.5765,-3.90447 1.3632,-4.38756 -1.0125,-2.29361 -23.4131,-5.04128 -30.5122003,-3.74264 -9.0688,1.65897 -19.7914997,4.4327 -20.4075997,5.27896 -2.5176,3.45849 1.3107,5.5187 13.74319968,7.39605 6.85880002,1.0357 28.26690032,0.81681 31.84090032,-0.32555 z m -96.6538,-0.71313 c 6.1469,-0.006 11.4876,0.15627 11.8682,0.36073 0.3806,0.20448 2.369,0.1784 4.4187,-0.0579 3.4218,-0.39455 3.7267,-0.57037 3.7267,-2.149 0,-0.9456 -0.333,-2.00874 -0.74,-2.36251 -0.407,-0.35377 -0.7933,-1.82523 -0.8584,-3.2699 l -0.1184,-2.62669 -15.9876,0.24522 c -9.6248,0.14762 -16.8148,0.53828 -18.0658,0.98156 -2.5597,0.90693 -5.8212,6.11285 -5.1751,8.26033 0.4152,1.3802 0.6903,1.43654 5.0973,1.04408 2.562,-0.22816 9.6876,-0.41981 15.8345,-0.42587 z m 34.5477,-0.34459 c 4.0885,-1.46464 6.0097,-3.21617 8.8095,-8.03109 2.839,-4.88228 6.5017,-9.2892 11.3162,-13.61552 1.8622997,-1.67337 3.1385997,-3.25746 2.8362997,-3.52019 -0.3022,-0.26274 -2.1247997,0.96156 -4.0500997,2.72067 -7.9694,7.2816 -14.2156,10.36424 -22.7145,11.21016 -7.029,0.69962 -8.7272,1.18819 -8.2091,2.3618 0.2124,0.48102 0.6094,2.39872 0.8823,4.26157 0.7345,5.01406 1.2944,5.63976 5.0465,5.63976 1.7686,0 4.506,-0.46222 6.0829,-1.02716 z m 11.2432,-0.28521 c 0.8914,-0.7218 1.6706,-2.17001 1.7317,-3.21824 0.061,-1.04823 0.1444,-2.24379 0.1851,-2.6568 0.1539,-1.56087 -1.8002,-1.21105 -2.5279,0.45254 -0.4179,0.95545 -1.4213,2.46815 -2.2298,3.36155 -1.1219,1.23975 -1.2722,1.83141 -0.635,2.49884 1.1133,1.16603 1.5657,1.10905 3.4759,-0.43789 z m -69.1265,-2.71043 c 0.6049,-1.15052 1.6346,-2.72379 2.2882,-3.49616 l 1.1883,-1.4043 -5.4801,0.0187 c -4.1076,0.014 -7.4137,-0.49701 -13.200398,-2.04034 -4.2461,-1.13246 -8.2201,-2.42161 -8.831,-2.86479 -0.6109,-0.44317 -2.1104,-1.24295 -3.3322,-1.77729 -5.2455,-2.29404 -9.8667,-4.75599 -13.2403,-7.05376 -8.1677,-5.56303 -5.0112,-1.01626 3.5244,5.07671 3.3074,2.36096 8.2881,6.26121 11.0681,8.66725 5.978,5.17386 10.7659,6.87039 19.556598,6.9297 5.3413,0.036 5.3622,0.0294 6.4584,-2.0557 z M -227.37292,162.1818 c 1.1826,-0.50618 2.8912,-0.92034 3.7969,-0.92034 2.5666,0 3.2375,-1.24377 2.2567,-4.18371 -0.8271,-2.4795 -0.9671,-2.56993 -3.7908,-2.44817 -8.6803,0.3743 -16.1929,1.50241 -17.6682,2.65312 -0.8549,0.66679 -2.1375,1.39124 -2.8503,1.60988 -2.294,0.70376 -1.3874,2.16872 2.2215,3.58939 2.9445,1.15913 4.3615,1.32238 8.7007,1.00241 2.8509,-0.21023 6.1509,-0.79639 7.3335,-1.30258 z m 80.4317,-0.0545 c 1.16,-0.20166 2.2865,-0.76862 2.5034,-1.2599 0.5568,-1.26119 -0.2676,-2.82416 -1.4896,-2.82416 -0.5673,0 -1.6459,-0.5341 -2.3969,-1.18688 -0.8332,-0.72423 -3.0094,-1.35481 -5.5827,-1.6177 -5.5303,-0.56499 -28.7943,0.82907 -29.5095,1.76831 -0.9206,1.20902 -0.6248,4.05493 0.5063,4.87088 0.7348,0.53013 3.2869,0.68627 8.0999,0.49555 3.8649,-0.15315 8.2971,-0.0467 9.8493,0.23657 2.8137,0.51346 14.0158,0.21343 18.0198,-0.48264 z m 64.436198,0.3554 c 3.7825,-0.70511 3.8041,-0.72324 3.3538,-2.81001 -0.5023,-2.32711 0.1081,-4.39227 1.135,-3.84057 0.3646,0.19586 0.668,1.13553 0.6743,2.08816 0.021,3.26416 0.4822,3.40301 11.5336,3.4745 5.6646,0.0366 11.4656,-0.0914 12.891,-0.28461 1.4255,-0.19319 2.9465,-0.383 3.3802,-0.42181 0.4336,-0.0388 1.3679,-1.12671 2.076,-2.41755 1.3587,-2.47655 2.3896,-2.32401 2.8116,0.41604 0.2854,1.85319 0.8232,1.89616 9.5821,0.76569 6.6486,-0.85811 7.9836,-1.30919 12.8803,-4.35199 3.8783,-2.41002 18.6806997,-14.33108 30.7024997,-24.7262 7.5819003,-6.55602 11.7908003,-9.5851 15.7055003,-11.30303 4.4332,-1.94543 8.5256,-6.01337 5.2408,-5.20943 -5.4464,1.33293 -5.8415,1.2536 -7.4955,-1.50477 -1.429,-2.38306 -1.4616,-2.66589 -0.3496,-3.03682 0.7932,-0.26457 1.7343,0.13629 2.6646,1.13492 l 1.4383,1.54393 2.1488,-2.0904 c 2.2766,-2.21473 2.8519,-4.64471 1.0998,-4.64471 -1.9784,0 -1.7297,-1.61048 0.5845,-3.78583 l 2.3157,-2.176733 -2.0053,0.41219 c -3.4868,0.716713 -9.2738,-5.51618 -6.5034,-7.00448 0.4111,-0.22082 1.3274,0.48436 2.0364,1.56708 0.7089,1.08272 1.7054,1.9704 2.2145,1.97265 1.4598,0.007 1.0789,-3.0809 -0.5554,-4.50148 -0.8145,-0.70801 -1.4809,-1.56835 -1.4809,-1.91187 0,-0.34352 -0.8418,-2.22416 -1.8706,-4.1792 -1.4441,-2.74423 -2.5318,-3.84788 -4.7712,-4.84091 -1.8207,-0.80742 -4.1612,-2.82176 -6.2864,-5.41057 -1.8622,-2.26832 -3.8804003,-4.28921 -4.4849003,-4.49084 -0.6045,-0.20161 -1.0991,-0.9475 -1.0991,-1.65753 0,-0.7503 -0.8528,-1.68647 -2.0363,-2.23532 -1.12,-0.51939 -2.9951,-1.67839 -4.16700002,-2.57556 -2.69359998,-2.06218 -9.51969998,-4.30887 -12.56999968,-4.13716 -1.2818,0.0721 -3.0583,-0.21042 -3.9479,-0.62794 -2.0093,-0.943019 -6.3636,-0.970339 -10.1209,-0.0635 -3.8194,0.92185 -9.0681,-0.19377 -12.5083,-2.658669 -2.2364,-1.60232 -2.7468,-2.48648 -3.4438,-5.96552 -0.45,-2.24644 -0.8183,-5.43649 -0.8183,-7.08903 0,-2.97005 -0.028,-3.00461 -2.4436,-3.00461 -2.8272,0 -4.2207,-0.96657 -4.2207,-2.92759 0,-1.24301 -0.6179,-1.4579 -6.1091,-2.12487 -3.3599,-0.40811 -8.5472,-0.74163 -11.5274,-0.74119 -5.0019,7.8e-4 -5.3838,0.0956 -4.9681,1.23395 0.6442,1.76435 -0.8542,2.28504 -1.8626,0.64727 -0.6954,-1.12954 -1.2618,-1.29665 -3.1842,-0.93953 -1.2861,0.23892 -4.4782,0.71012 -7.0937,1.04712 -2.6154,0.33701 -5.123,0.87796 -5.5724,1.20214 -0.4494,0.3242 -2.473,0.68036 -4.4969,0.79151 -3.4418,0.18902 -3.7047,0.32697 -4.0646,2.13302 -0.3051,1.53132 -0.7695,1.93787 -2.243798,1.9644 -2.8555,0.0514 -3.6708,0.79713 -3.6995,3.38369 -0.025,2.27375 -1.4141,8.026 -2.5938,10.74312 -1.5587,3.590119 -7.9981,7.219119 -14.0173,7.899699 -1.642,0.18564 -3.9273,1.01853 -5.0786,1.85084 -1.2439,0.89934 -3.0615,1.5133 -4.4799,1.5133 -1.3127,0 -2.7643,0.32811 -3.2256,0.72912 -1.2871,1.11881 -3.3971,0.12899 -2.9429,-1.38059 0.2117,-0.7037 0.1201,-1.27946 -0.2038,-1.27946 -0.3238,0 -0.8028,0.99146 -1.0643,2.20324 -0.3635,1.6844 -1.2113,2.59873 -3.5997,3.88253 -1.7183,0.92361 -4.9569,2.96913 -7.1969,4.54558 -2.95,2.07619 -4.5325,2.7767 -5.7407,2.54124 -1.2542,-0.24437 -1.9892,0.12608 -2.962,1.49306 -3.863,5.42826 -10.5499,10.41148 -10.5499,7.86203 0,-0.35401 -0.4998,-0.64365 -1.1107,-0.64365 -1.3231,0 -1.3418,0.39356 -0.3214,6.77064 0.7066,4.41606 0.6552,5.018083 -0.4906,5.746333 -1.2796,0.81337 -1.1538,1.58204 0.6096,3.72307 0.7539,0.91528 0.6864,1.31538 -0.3775,2.24019 -1.0733,0.93297 -1.5452,0.99018 -2.7542,0.33389 -3.5242,-1.91306 -4.057,0.0865 -0.7817,2.9334 1.4921,1.29695 2.0533,2.30901 1.7814,3.21264 -0.2735,0.90901 0.085,1.5435 1.1539,2.04059 2.0793,0.96732 2.0126,3.41298 -0.1153,4.22447 -0.9163,0.34945 -1.666,0.94258 -1.666,1.31806 0,0.98517 9.1387,7.92838 12.2533,9.30954 3.1518,1.39764 12.4046,7.02514 19.5808,11.9089 2.8471,1.93763 5.4071,3.52297 5.6888,3.52297 0.2817,0 0.7238,-0.57929 0.9823,-1.2873 0.2585,-0.70801 1.114,-1.28729 1.9011,-1.28729 1.7207,0 1.7438,0.18192 0.3262,2.56478 -1.0089,1.69575 -0.9928,1.88883 0.1851,2.2208 0.7095,0.19996 2.6229,1.50794 4.2519,2.9066 3.1176,2.67665 5.1139,3.24347 5.8167,1.65156 0.2398,-0.54319 0.9122,-0.79092 1.5602,-0.57478 1.3083,0.4364 1.5541,2.17305 0.3076,2.17305 -1.3771,0 0.6359,1.70916 4.078,3.46261 1.7167,0.87448 5.7704,2.16811 9.0082,2.87475 3.2377,0.70663 6.719898,1.57894 7.737998,1.93845 2.5009,0.88307 10.908,0.89686 15.5819,0.0255 z m 22.6255,-1.6947 c -0.714,-0.62067 -0.5074,-4.56494 0.2607,-4.9776 0.852,-0.45773 2.2586,1.66522 2.2586,3.40892 0,1.25598 -1.6774,2.30045 -2.5193,1.56868 z m -9.3284,-1.45747 c 0,-0.354 0.4998,-0.64364 1.1107,-0.64364 0.6109,0 1.1107,0.28964 1.1107,0.64364 0,0.35401 -0.4998,0.64365 -1.1107,0.64365 -0.6109,0 -1.1107,-0.28964 -1.1107,-0.64365 z m -20.3318,-0.59917 c -0.2343,-0.32955 -0.1223,-0.76234 0.249,-0.96178 0.3712,-0.19943 0.866,0.0702 1.0995,0.59918 0.4604,1.04279 -0.6521,1.34194 -1.3485,0.3626 z m 20.3318,-2.29724 c 0,-0.53101 0.4998,-0.96548 1.1107,-0.96548 0.6109,0 1.1107,0.43447 1.1107,0.96548 0,0.53101 -0.4998,0.96547 -1.1107,0.96547 -0.6109,0 -1.1107,-0.43446 -1.1107,-0.96547 z m 35.1472,-0.35815 c -0.5757,-0.8097 1.0324,-2.00444 2.2473,-1.66961 0.4072,0.11224 0.7405,0.61044 0.7405,1.10711 0,1.13888 -2.2737,1.56692 -2.9878,0.5625 z m -72.869498,-1.32008 c 0.604,-0.98093 0.6112,-1.55107 0.026,-2.05967 -1.3251,-1.15185 -0.9903,-3.14514 0.4868,-2.89788 0.918,0.15368 1.3197,0.87119 1.3777,2.46088 0.1037,2.84192 -0.334,3.85307 -1.6681,3.85307 -0.846,0 -0.8905,-0.27126 -0.2224,-1.3564 z m 9.444998,-1.01423 c 0.5345,-0.18593 1.1732,-0.16307 1.4192,0.0508 0.2461,0.21388 -0.1912,0.36601 -0.9718,0.33806 -0.8627,-0.0309 -1.0381,-0.1834 -0.4474,-0.38886 z m 50.1141,-2.16443 c -0.6005,-2.37655 0.7092,-4.13065 1.8962,-2.53969 0.9228,1.23682 0.5862,4.0068 -0.5254,4.3237 -0.472,0.13456 -1.0889,-0.66825 -1.3708,-1.78401 z m -45.5324,-2.54507 c 0,-4.06209 1.8353,-4.53545 2.5871,-0.66727 0.5431,2.79427 0.1163,3.88551 -1.52,3.88551 -0.7868,0 -1.0671,-0.84526 -1.0671,-3.21824 z m 24.5841,2.44586 c -1.0489,-0.91174 -1.1798,-2.44586 -0.2086,-2.44586 1.6878,0 3.0225,0.88312 3.0225,1.99981 0,1.37463 -1.4763,1.60866 -2.8139,0.44605 z m 34.8593,-3.45729 c -1.4672,-2.61808 -1.5076,-2.9153 -0.3703,-2.72692 0.7021,0.1163 1.383,0.86017 1.5131,1.65307 0.1301,0.7929 0.7133,1.44163 1.2958,1.44163 0.5826,0 1.0593,0.57929 1.0593,1.2873 0,2.23936 -1.7901,1.39237 -3.4979,-1.65508 z m -88.628998,0.2604 c -0.8474,-2.36471 -0.9969,-5.70477 -0.2727,-6.09381 1.2995,-0.69813 2.5877,1.4812 2.4067,4.07181 -0.1658,2.37508 -1.5407,3.6777 -2.134,2.022 z m 62.507498,-1.2179 c 0,-0.3749 0.3332,-0.50263 0.7404,-0.28384 0.4073,0.21879 0.7405,0.52553 0.7405,0.68164 0,0.1561 -0.3332,0.28384 -0.7405,0.28384 -0.4072,0 -0.7404,-0.30674 -0.7404,-0.68164 z m -47.391098,-0.58546 c 0,-0.34289 0.4998,-0.45673 1.1107,-0.25296 0.6109,0.20377 1.1108,0.48432 1.1108,0.62345 0,0.13912 -0.4999,0.25296 -1.1108,0.25296 -0.6109,0 -1.1107,-0.28056 -1.1107,-0.62345 z m 27.511398,-2.59479 c -0.021,-2.26643 0.2636,-3.21824 0.9594,-3.21824 1.2467,0 2.0632,2.71308 1.4527,4.82736 -0.8411,2.91281 -2.3809,1.88556 -2.4121,-1.60912 z m 10.7269,2.77164 c -0.885,-0.76926 -0.4782,-2.128 0.6372,-2.128 0.6109,0 1.1107,0.41737 1.1107,0.92749 0,1.07531 -1.0569,1.80119 -1.7479,1.20051 z m 51.4163,-1.10403 c -0.9074,-0.95033 -0.471,-3.59856 0.593,-3.59856 1.3706,0 3.1884,1.81229 2.9404,2.93157 -0.3454,1.55919 -2.3248,1.93283 -3.5334,0.66699 z m -43.7445,-1.02397 c 0,-0.354 0.4998,-0.64364 1.1107,-0.64364 0.6109,0 1.1107,0.28964 1.1107,0.64364 0,0.35401 -0.4998,0.64365 -1.1107,0.64365 -0.6109,0 -1.1107,-0.28964 -1.1107,-0.64365 z m -7.9972,-2.05967 c -0.4888,-0.42481 -0.8886,-1.00409 -0.8886,-1.2873 0,-0.767 2.0575,-0.6225 2.6315,0.18481 0.7625,1.07234 -0.7078,2.0023 -1.7429,1.10249 z m 22.135,-0.4035 c -1.1145,-1.81008 -1.0134,-3.32966 0.2214,-3.32966 1.2628,0 2.2864,3.16718 1.3006,4.02409 -0.4569,0.39711 -1.0035,0.14769 -1.522,-0.69443 z m -60.986398,-1.55963 c -0.4403,-2.51596 -0.1463,-3.05732 1.661,-3.05732 1.6363,0 2.0566,0.85128 1.6395,3.32121 -0.4505,2.66804 -2.8205,2.47856 -3.3005,-0.26389 z m 15.263298,1.09863 c -0.2412,-0.54628 -0.2451,-1.16134 -0.01,-1.36682 0.7472,-0.64946 2.7151,0.34669 2.7151,1.37438 0,1.28475 -2.1385,1.27878 -2.7064,-0.008 z m -40.241798,-0.50861 c 0,-0.47202 0.2104,-1.0411 0.4676,-1.26466 0.6978,-0.60654 3.3461,0.80209 2.8416,1.5115 -0.6599,0.92809 -3.3092,0.73047 -3.3092,-0.24684 z m 72.340898,-1.48435 c -0.6911,-0.60068 0.144,-1.51935 1.3811,-1.51935 0.5869,0 1.067,0.43446 1.067,0.96547 0,0.96949 -1.5631,1.32314 -2.4481,0.55388 z m 42.4343,-0.8757 c 0,-0.35401 0.3333,-0.64365 0.7405,-0.64365 0.4073,0 0.7405,0.28964 0.7405,0.64365 0,0.35401 -0.3332,0.64365 -0.7405,0.64365 -0.4072,0 -0.7405,-0.28964 -0.7405,-0.64365 z m -51.4941,-0.68647 c -0.6815,-0.95849 0.1087,-1.47961 1.5264,-1.00671 0.6543,0.21824 0.9822,0.68848 0.7287,1.04499 -0.6002,0.84417 -1.6403,0.82651 -2.2551,-0.0383 z m -62.370898,-0.72151 c 0.4577,-1.19347 2.0518,-1.39141 2.0518,-0.25477 0,0.5605 -0.5276,1.0191 -1.1725,1.0191 -0.6448,0 -1.0405,-0.34395 -0.8793,-0.76433 z m 38.335498,-0.13228 c 0,-0.97089 1.7987,-1.8309 2.5193,-1.20453 0.9752,0.84762 0.3557,2.10114 -1.0383,2.10114 -0.8145,0 -1.481,-0.40347 -1.481,-0.89661 z m 14.4132,0.0921 c -0.6464,-1.44925 0.1387,-3.23929 1.2763,-2.90971 1.3592,0.39383 1.4649,1.39164 0.2938,2.77483 -0.9932,1.1732 -1.1029,1.18262 -1.5701,0.13489 z m -65.064898,-0.38217 c -0.2562,-0.3604 -0.1052,-0.8491 0.3359,-1.08601 1.1385,-0.6116 1.8731,0.22614 0.9227,1.05226 -0.5318,0.46225 -0.946,0.47336 -1.2586,0.0337 z m 22.0875,-1.6731 c -0.5468,-1.89345 0.102,-3.00063 1.4873,-2.53854 1.3583,0.45307 1.9258,2.54429 0.9262,3.41315 -1.2446,1.08185 -1.9192,0.83739 -2.4135,-0.87461 z m 103.720298,0.92435 c -0.2535,-0.35651 0.075,-0.82676 0.7287,-1.04499 1.4177,-0.4729 2.2079,0.0482 1.5264,1.00671 -0.6149,0.86479 -1.6549,0.88245 -2.2551,0.0383 z m -28.7523,-0.42456 c -0.9019,-0.78392 -0.5103,-2.14549 0.617,-2.14549 0.6171,0 1.1108,0.57213 1.1108,1.2873 0,1.2823 -0.789,1.6742 -1.7278,0.85819 z m -12.747,-0.73975 c -0.3879,-0.24215 -0.7052,-1.88353 -0.7052,-3.64752 0,-2.48216 0.2793,-3.25449 1.2355,-3.41623 1.0381,-0.17559 1.2295,0.36474 1.1983,3.38258 -0.038,3.62657 -0.4408,4.48529 -1.7286,3.68117 z m -47.725998,-1.03028 c 0,-0.56051 0.5276,-1.01911 1.1725,-1.01911 1.3076,0 1.0799,1.38562 -0.2932,1.78344 -0.4836,0.14012 -0.8793,-0.20382 -0.8793,-0.76433 z m 38.058998,-0.0309 c -1.0839,-0.6955 -1.2048,-1.07806 -0.5291,-1.67397 1.086,-0.95783 3.1968,-0.33095 3.1968,0.94942 0,1.43238 -1.0993,1.73096 -2.6677,0.72455 z m 33.7681,-0.1622 c 0,-0.66671 -0.389,-1.55028 -0.8643,-1.96348 -0.6588,-0.5726 -0.5792,-0.8464 0.3348,-1.15124 0.6595,-0.21998 1.4807,-0.24864 1.825,-0.0637 0.9672,0.51959 0.671,3.82105 -0.3699,4.12254 -0.522,0.15119 -0.9256,-0.26046 -0.9256,-0.94411 z m -95.411498,-0.79383 c 0.1628,-0.42481 0.5377,-0.75066 0.833,-0.72411 0.8854,0.0796 0.7139,0.96244 -0.2406,1.23903 -0.4888,0.1416 -0.7553,-0.0901 -0.5924,-0.51492 z m 37.559098,0.45055 c -0.052,-0.0885 -0.1694,-0.74019 -0.2609,-1.44821 -0.091,-0.70801 -0.3746,-1.86658 -0.629,-2.57459 -0.6245,-1.7375 0.5199,-3.1891 2.099,-2.66239 0.9102,0.30363 1.1376,0.85922 0.8125,1.98529 -0.2484,0.86003 -0.1172,1.74335 0.2917,1.96294 1.3831,0.743 0.8344,2.89787 -0.7378,2.89787 -0.8145,0 -1.5235,-0.0724 -1.5755,-0.1609 z m 14.4668,-3.29928 c -0.6274,-1.42105 0.2074,-2.14653 1.3384,-1.16334 0.6678,0.5805 0.6707,0.94032 0.013,1.51292 -0.6588,0.57261 -0.9799,0.48947 -1.3503,-0.34958 z m -51.396498,-1.00736 c 0,-0.68712 0.3332,-1.42832 0.7405,-1.6471 0.4199,-0.22562 0.7404,0.31514 0.7404,1.24931 0,0.9059 -0.3332,1.6471 -0.7404,1.6471 -0.4073,0 -0.7405,-0.56218 -0.7405,-1.24931 z m 24.4292,0.27675 c -0.7615,-0.79755 -0.6513,-0.95838 0.6566,-0.95838 0.8644,0 1.5716,0.27255 1.5716,0.60566 0,1.11509 -1.3033,1.32141 -2.2282,0.35272 z m 36.799698,-0.0868 c -0.9657,-0.83938 -0.5047,-1.51525 1.0335,-1.51525 0.8618,0 1.4133,0.33738 1.2496,0.76433 -0.3607,0.94059 -1.5971,1.34724 -2.2831,0.75092 z m 21.27,-0.46543 c -0.5558,-1.25893 0.2015,-2.33712 1.6414,-2.33712 0.7269,0 1.0357,0.4893 0.8819,1.39779 -0.2874,1.69731 -1.9203,2.30521 -2.5233,0.93933 z m 28.2353,0.28195 c -0.5059,-0.71138 0.6622,-1.47952 1.346,-0.88518 0.7041,0.61198 0.5728,1.48435 -0.2232,1.48435 -0.3833,0 -0.8885,-0.26963 -1.1228,-0.59917 z m 11.9193997,0.15258 c -0.834,-0.72487 -0.5079,-1.48435 0.6372,-1.48435 0.6109,0 1.1107,0.27255 1.1107,0.60566 0,0.81163 -1.1563,1.39292 -1.7479,0.87869 z m -145.2383977,-0.8407 c 0.2517,-0.354 0.6046,-0.64365 0.7842,-0.64365 0.1797,0 0.3265,0.28965 0.3265,0.64365 0,0.35401 -0.3529,0.64365 -0.7842,0.64365 -0.4313,0 -0.5782,-0.28964 -0.3265,-0.64365 z m 117.171098,-0.38475 c -0.7206,-0.62636 0.2688,-2.18984 1.3857,-2.18984 0.5674,0 1.0315,0.57928 1.0315,1.2873 0,1.21172 -1.4421,1.75016 -2.4172,0.90254 z m -118.412498,-1.94629 c -0.1845,-0.31096 -0.314,-1.57517 -0.2876,-2.80934 0.035,-1.65163 0.4096,-2.30448 1.4177,-2.47325 1.1915,-0.19945 1.3009,0.0507 0.8407,1.92213 -0.647,2.6308 -1.5202,4.11962 -1.9708,3.36046 z m 144.154998,-0.88722 c 0.2517,-0.354 0.9377997,-0.64364 1.5246997,-0.64364 0.5869,0 1.067,0.28964 1.067,0.64364 0,0.35401 -0.6861,0.64365 -1.5246,0.64365 -0.8385997,0 -1.3187997,-0.28964 -1.0670997,-0.64365 z m -111.934798,-1.00873 c -0.6172,-1.39798 0.9496,-2.71267 2.0711,-1.73785 0.9479,0.82389 0.3607,2.74658 -0.8388,2.74658 -0.4328,0 -0.9874,-0.45393 -1.2323,-1.00873 z m 61.474398,0.032 c -0.7452,-1.68799 -0.6672,-7.05402 0.1075,-7.39068 0.4072,-0.177 1.0231,0.83674 1.3685,2.25277 0.3455,1.41602 0.9286,3.07753 1.2959,3.69224 0.3673,0.61471 0.6678,1.41122 0.6678,1.77003 0,1.03575 -2.9626,0.75637 -3.4397,-0.32438 z m -82.333798,-1.04341 c 0.136,-0.83594 0.5806,-1.44749 0.9879,-1.35899 1.0931,0.23754 0.9,2.26018 -0.2475,2.59265 -0.6773,0.19624 -0.9101,-0.19164 -0.7404,-1.23366 z m 11.1459,0.63343 c 0.3844,-1.00223 2.041,-1.17774 2.0991,-0.22238 0.022,0.354 -0.5167,0.74372 -1.196,0.86603 -0.7721,0.13902 -1.1107,-0.10227 -0.9031,-0.64365 z m 140.5306977,0.0615 c 0,-0.3749 0.3332,-0.50263 0.7405,-0.28384 0.4073,0.21879 0.7405003,0.52553 0.7405003,0.68164 0,0.1561 -0.3332003,0.28383 -0.7405003,0.28383 -0.4073,0 -0.7405,-0.30673 -0.7405,-0.68163 z m -104.0526997,-0.6261 c -0.2876,-0.40446 -0.1744,-1.03824 0.2514,-1.4084 0.9951,-0.865 3.3153,-0.11051 2.9104,0.94644 -0.4122,1.07598 -2.5076,1.38212 -3.1618,0.46196 z m 60.6196,-0.32915 c -0.5587,-1.26559 0.1024,-1.84668 1.5513,-1.36341 0.6508,0.21708 0.9448,0.79682 0.6932,1.36681 -0.5614,1.27154 -1.6824,1.26985 -2.2445,-0.003 z m -71.561098,-0.0992 c -0.4411,-0.64249 1.1419,-8.29653 1.841,-8.90147 0.2812,-0.24333 0.4478,1.66463 0.3703,4.23993 -0.087,2.87667 -0.4719,4.77799 -0.9989,4.93032 -0.4717,0.13636 -1.0173,0.0153 -1.2124,-0.26878 z m 36.502798,-0.19489 c 0,-0.354 0.4998,-0.64365 1.1107,-0.64365 0.6109,0 1.1107,0.28965 1.1107,0.64365 0,0.35401 -0.4998,0.64365 -1.1107,0.64365 -0.6109,0 -1.1107,-0.28964 -1.1107,-0.64365 z m 59.5685,0.15106 c -1.09,-0.66001 -0.9068,-5.45144 0.2211,-5.78012 1.2052997,-0.35124 2.6121997,2.91412 2.0677997,4.79937 -0.4449,1.5408 -0.983,1.7714 -2.2888997,0.98075 z m -38.6868,-0.92344 c -1.3376,-1.1626 -1.0683,-2.44586 0.5131,-2.44586 1.4567,0 2.6141,1.61303 1.8892,2.63267 -0.5659,0.79583 -1.3412,0.73554 -2.4023,-0.18681 z m 27.3857,-1.5004 c 0.1289,-0.89602 0.5676,-1.62913 0.9748,-1.62913 0.4073,0 0.846,0.73311 0.9748,1.62913 0.1671,1.16107 -0.1131,1.62913 -0.9748,1.62913 -0.8617,0 -1.1417,-0.46806 -0.9748,-1.62913 z m -109.542598,-0.12049 c -1.2718,-0.39656 -1.1686,-1.46863 0.1415,-1.46863 1.2265,0 2.1972,1.06135 1.3516,1.47779 -0.3121,0.1537 -0.9839,0.14956 -1.493,-0.009 z m 9.071,-0.82498 c -0.2518,-0.354 0.2284,-0.64365 1.067,-0.64365 0.8385,0 1.5247,0.28965 1.5247,0.64365 0,0.35401 -0.4802,0.64365 -1.0671,0.64365 -0.5868,0 -1.2729,-0.28964 -1.5246,-0.64365 z m 51.212198,0.16698 c -0.2152,-0.30265 -0.089,-0.97091 0.2793,-1.48502 0.7087,-0.98797 2.9199,-0.2945 3.1764,0.99621 0.1598,0.80352 -2.922,1.23944 -3.4557,0.48881 z m -82.380498,-1.05406 c -0.6056,-1.37177 -0.097,-3.14228 0.9935,-3.45784 0.6044,-0.17498 0.9256,0.40765 0.9256,1.6787 0,2.14788 -1.2462,3.30323 -1.9191,1.77914 z m 58.936498,-0.40022 c 0,-0.82959 0.375,-1.28592 0.9256,-1.12639 0.509,0.14752 0.9256,0.65438 0.9256,1.12639 0,0.47201 -0.4166,0.97888 -0.9256,1.12638 -0.5506,0.15954 -0.9256,-0.29679 -0.9256,-1.12638 z m 14.9911,0.48273 c 0.469,-1.23785 3.521,-1.41613 3.521,-0.20567 0,0.65717 -0.6686,1.01023 -1.9129,1.01023 -1.1993,0 -1.7992,-0.30016 -1.6081,-0.80456 z m 86.3071997,0.0322 c 0.6911,-0.60073 1.0861,-0.60073 1.7772,0 0.6911,0.60074 0.4937,0.77238 -0.8886,0.77238 -1.3822,0 -1.5797,-0.17165 -0.8886,-0.77238 z m -40.7173997,-2.88554 c 0.5345,-0.18593 1.1732,-0.16308 1.4193,0.0508 0.246,0.21388 -0.1912,0.366 -0.9719,0.33806 -0.8626,-0.0309 -1.0381,-0.18341 -0.4474,-0.38887 z m 11.7552,0.024 c -1.0173,-0.88428 -0.4896,-2.25004 0.7868,-2.03637 0.7127,0.11932 1.2958,0.62327 1.2958,1.11994 0,1.01623 -1.3064,1.5911 -2.0826,0.91643 z m -98.993598,-1.79519 c 0,-2.08938 1.2578,-4.86926 2.2031,-4.86926 0.9608,0 0.9809,2.62671 0.037,4.78546 -0.9146,2.09109 -2.2398,2.14067 -2.2398,0.0838 z m -10.1181,-0.0852 c -0.6716,-1.52117 0.9041,-2.60389 2.3116,-1.5885 0.6282,0.45316 1.1421,1.2229 1.1421,1.71058 0,1.22337 -2.9051,1.12069 -3.4537,-0.12206 z m 80.138598,0.25175 c -0.1765,-0.46867 -0.4709,-2.01071 -0.6541,-3.42673 -0.1833,-1.41603 -0.5841,-3.25173 -0.8908,-4.07934 -0.4901,-1.32218 -0.343,-1.47837 1.2117,-1.28729 1.5087,0.18539 1.8475,0.69182 2.2984,3.43569 0.2909,1.77003 0.6241,3.78643 0.7405,4.48088 0.2424,1.44644 -2.1936,2.23583 -2.7057,0.87679 z m 55.9120997,-0.44889 c -1.7756,-2.88384 -0.087,-5.97463 1.9448,-3.55948 1.1846,1.40812 1.0137,4.22537 -0.2787,4.59393 -0.4815,0.13738 -1.2312,-0.3282 -1.6661,-1.03445 z M -79.307022,113.3097 c -0.594,-1.34567 0.2146,-2.89642 1.5103,-2.89642 1.2077,0 2.2761,2.20283 1.5582,3.2125 -0.6936,0.9756 -2.5842,0.78087 -3.0685,-0.31608 z m 16.5367,0.55388 c -0.691,-0.60068 0.144,-1.51934 1.3812,-1.51934 0.5868,0 1.067,0.43445 1.067,0.96546 0,0.96949 -1.5632,1.32313 -2.4482,0.55388 z m 50.9377,-0.39296 c -0.185,-0.44252 -0.4243,-1.80707 -0.5322,-3.03236 -0.1458,-1.65792 0.1226,-2.2853 1.0499,-2.45251 1.7016997,-0.30692 3.0315997,2.08244 2.4469997,4.39624 -0.4812,1.90431 -2.3390997,2.58652 -2.9646997,1.08863 z m -58.8563,-1.0884 c 0,-0.33312 0.3332,-0.78467 0.7405,-1.00346 0.4072,-0.21878 0.7405,0.0538 0.7405,0.60566 0,0.5519 -0.3333,1.00347 -0.7405,1.00347 -0.4073,0 -0.7405,-0.27255 -0.7405,-0.60567 z m -80.947398,-0.45636 c -0.7888,-0.68566 -0.5942,-2.79987 0.2577,-2.79987 1.0949,0 1.7842,1.90467 0.9514,2.62858 -0.3867,0.33611 -0.9308,0.4132 -1.2091,0.17132 z m 57.519598,-0.5471 c -0.5691,-1.28904 0.2708,-3.08089 1.208,-2.5774 0.9812,0.52714 0.9659,3.54288 -0.019,3.54288 -0.4201,0 -0.9555,-0.43447 -1.19,-0.96548 z m 60.3272,-0.62481 c -0.6742,-1.28624 -0.668,-1.83993 0.028,-2.44459 0.7054,-0.6132 1.0499,-0.57474 1.5976,0.17844 0.9173,1.26106 0.9091,3.03588 -0.017,3.53299 -0.4055,0.21786 -1.1295,-0.35219 -1.6089,-1.26676 z m 10.9389,0.18964 c -1.0149,-2.99479 -1.9549,-8.33943 -1.5636,-8.88976 0.3099,-0.43591 0.9231,-0.44235 1.8326,-0.0192 0.9914,0.4612 1.4487,1.56675 1.6649,4.02455 0.1639,1.86378 0.4449,3.80594 0.6245,4.31593 0.182,0.51686 -0.248,1.03643 -0.9716,1.17394 -0.7139,0.13575 -1.428,-0.13684 -1.5868,-0.60541 z m -49.1857,-2.62215 c 0.1302,-0.79653 0.7365,-1.44821 1.3474,-1.44821 0.6109,0 1.2172,0.65168 1.3473,1.44821 0.1822,1.11459 -0.1282,1.44821 -1.3473,1.44821 -1.2191,0 -1.5295,-0.33362 -1.3474,-1.44821 z m 81.1041997,1.04625 c -1.1002,-0.95632 -0.4416,-1.529 1.7583003,-1.529 1.4954,0 2.178,0.27758 1.9783,0.80457 -0.3458,0.91261 -2.9412003,1.41579 -3.7366003,0.72443 z M -129.55752,107.19506 c -0.6198,-0.87173 0.2165,-1.93096 1.5247,-1.93096 0.5868,0 1.067,0.57929 1.067,1.28731 0,1.33255 -1.7864,1.7762 -2.5917,0.64365 z m 148.200298,0.19705 c -0.8339,-0.72488 -0.5079,-1.48435 0.6372,-1.48435 0.611,0 1.1108,0.27254 1.1108,0.60566 0,0.81162 -1.1564,1.39291 -1.748,0.87869 z m -98.4644,-0.62616 c -0.9388,-0.81601 -0.4879,-1.50185 0.9873,-1.50185 0.8228,0 1.481,0.42911 1.481,0.96548 0,0.97989 -1.5664,1.32029 -2.4683,0.53637 z m -14.432,-1.28759 c 0.3603,-1.61477 2.0906,-1.83649 2.0906,-0.26788 0,0.7906 -0.4781,1.34093 -1.165,1.34093 -0.6896,0 -1.0673,-0.43792 -0.9256,-1.07305 z m -56.978498,-0.33487 c 0.4577,-1.19347 2.0517,-1.39142 2.0517,-0.25478 0,0.56051 -0.5275,1.0191 -1.1724,1.0191 -0.6448,0 -1.0405,-0.34396 -0.8793,-0.76432 z m 89.535098,0.18044 c -0.7449,-0.40229 -0.7801,-0.66323 -0.1358,-1.00929 1.0161,-0.54585 1.7789,-0.0626 1.4027,0.88862 -0.154,0.38957 -0.6768,0.43936 -1.2669,0.1206 z m 25.8109,-0.34367 c 0,-1.32211 1.533,-1.97173 2.2554,-0.95573 0.3348,0.47096 0.4445,1.08735 0.2437,1.36975 -0.6223,0.87526 -2.4991,0.56434 -2.4991,-0.41402 z m 39.3062997,0.0254 c -0.9449,-0.98956 -0.3144,-1.67253 1.5438,-1.67253 1.6001,0 1.8295,1.63579 0.301,2.14565 -0.5812,0.19384 -1.4113,-0.019 -1.8448,-0.4731 z M -101.46042,103.7934 c -0.6963,-1.57713 0.4472,-2.81947 1.3313,-1.44636 0.473098,0.7348 0.446598,1.34319 -0.078,1.79941 -0.5636,0.4899 -0.9261,0.38778 -1.2531,-0.35305 z m -16.2493,-0.46027 c 0.2517,-0.35401 0.9378,-0.64365 1.5246,-0.64365 0.5869,0 1.0671,0.28964 1.0671,0.64365 0,0.35401 -0.6861,0.64365 -1.5247,0.64365 -0.8386,0 -1.3187,-0.28964 -1.067,-0.64365 z m 44.799298,0.0688 c 0,-0.31613 0.4999,-0.7415 1.1108,-0.94526 0.6765,-0.22567 1.1107,-0.001 1.1107,0.57478 0,0.51989 -0.4998,0.94528 -1.1107,0.94528 -0.6109,0 -1.1108,-0.25866 -1.1108,-0.5748 z m 87.626,-1.07759 c -0.6172,-1.39798 0.9496,-2.712673 2.0711,-1.73785 0.9478,0.82389 0.3606,2.74659 -0.8388,2.74659 -0.4329,0 -0.9874,-0.45394 -1.2323,-1.00874 z m -182.408098,-0.27857 c 0,-0.35399 0.5195,-0.64363 1.1545,-0.64363 0.6349,0 0.9484,0.28964 0.6967,0.64363 -0.2517,0.35401 -0.7712,0.64365 -1.1544,0.64365 -0.3832,0 -0.6968,-0.28964 -0.6968,-0.64365 z m 28.4122,-0.80456 c 0.2456,-0.79651 0.4511,-1.665433 0.4566,-1.930933 0.01,-0.26551 0.51,-0.48275 1.1209,-0.48275 1.3287,0 1.4727,2.002493 0.2221,3.089523 -1.412,1.22737 -2.2852,0.89943 -1.7996,-0.67584 z m 9.3526,0.26819 c 0,-1.518473 0.6224,-2.037203 1.9236,-1.603183 1.638,0.546373 1.2823,2.783203 -0.4427,2.783203 -0.9424,0 -1.4809,-0.4291 -1.4809,-1.18002 z m -17.7717,-0.10728 c 0,-0.35401 0.3529,-0.64365 0.7842,-0.64365 0.4313,0 0.5783,0.28964 0.3266,0.64365 -0.2518,0.35399 -0.6046,0.64363 -0.7842,0.64363 -0.1797,0 -0.3266,-0.28964 -0.3266,-0.64363 z m 94.782098,0 c 0,-0.35401 0.3332,-0.64365 0.7405,-0.64365 0.4073,0 0.7405,0.28964 0.7405,0.64365 0,0.35399 -0.3332,0.64363 -0.7405,0.64363 -0.4073,0 -0.7405,-0.28964 -0.7405,-0.64363 z m 53.31499968,-0.96548 c 0,-1.820793 0.5944,-1.992703 2.56330002,-0.741303 1.5914,1.011493 0.9499,2.350413 -1.1261,2.350413 -1.03940002,0 -1.43720002,-0.4454 -1.43720002,-1.60911 z M -62.821322,99.390717 c -0.7053,-3.0654 -0.5516,-8.93063 0.234,-8.93063 1.1215,0 1.3425,0.69047 1.9055,5.95375 0.4494,4.200953 0.3592,4.988283 -0.5715,4.988283 -0.6454,0 -1.2977,-0.8368 -1.568,-2.011403 z m 25.5952,0.885003 c 0.1373,-0.619503 0.7402,-1.126383 1.34,-1.126383 0.5997,0 1.2027,0.50688 1.34,1.126383 0.1751,0.7903 -0.2247,1.1264 -1.34,1.1264 -1.1153,0 -1.5151,-0.3361 -1.34,-1.1264 z m -55.8162,0.0431 c 0.5345,-0.18594 1.1732,-0.16311 1.4192,0.0507 0.2461,0.21387 -0.1912,0.366 -0.9718,0.33806 -0.8627,-0.0308 -1.0381,-0.1834 -0.4474,-0.38887 z m 13.2207,0.011 c -0.852,-0.740593 -0.5392,-1.501833 0.6171,-1.501833 0.6109,0 1.1107,0.43447 1.1107,0.96548 0,1.005103 -0.8757,1.276973 -1.7278,0.536373 z m 6.4565,-1.139233 c -0.5834,-1.32151 0.2383,-3.12944 1.19,-2.61819 0.4101,0.22034 0.7457,0.94571 0.7457,1.61195 0,1.58571 -1.3663,2.295993 -1.9357,1.00626 z m 47.8536,-0.0325 c -0.9533,-0.99846 -0.5473,-2.90462 0.6188,-2.90462 1.1728,0 2.518,1.87594 2.0712,2.88822 -0.545,1.234343 -1.5214,1.240293 -2.69,0.0164 z m 9.9448,0.25188 c -0.2758,-0.38799 0.05,-1.1845 0.7236,-1.77004 1.0337,-0.89832 1.3259,-0.92291 1.8703,-0.15745 0.3549,0.49889 0.4738,1.2954 0.2642,1.77003 -0.4597,1.041343 -2.1629,1.135203 -2.8581,0.15746 z m -148.887298,-1.5274 c -0.2243,-0.50809 -0.192,-1.22731 0.072,-1.59825 0.803,-1.12936 2.6137,-0.75252 2.6137,0.54394 0,1.50001 -2.121,2.33273 -2.6854,1.05431 z m 72.013298,0.43203 c -0.2008,-0.2824 -0.068,-0.93167 0.2957,-1.44282 0.4995,-0.7025 0.8695,-0.74796 1.5157,-0.18625 0.4702,0.40869 0.631,1.05796 0.3574,1.44283 -0.5847,0.82238 -1.6513,0.91397 -2.1688,0.18624 z m 103.6988,0.0845 c -1.0193,-0.88604 -0.4397,-2.14552 0.9873,-2.14552 0.9873,0 1.481,0.42911 1.481,1.28731 0,1.24043 -1.4489,1.74421 -2.4683,0.85819 z m -63.8051,-0.85821 c -0.2517,-0.35401 -0.1048,-0.64366 0.3265,-0.64366 0.4313,0 0.7842,0.28965 0.7842,0.64366 0,0.35401 -0.1469,0.64365 -0.3265,0.64365 -0.1797,0 -0.5325,-0.28964 -0.7842,-0.64365 z m 51.4636997,-0.21455 c 0,-1.21064 0.71259998,-1.6853 1.92359998,-1.28137 1.57510002,0.52537 1.24110002,2.13957 -0.4426,2.13957 -0.8146,0 -1.48099998,-0.3862 -1.48099998,-0.8582 z M -145.41952,96.521787 c 0.035,-0.74983 0.211,-0.90234 0.4474,-0.38888 0.2139,0.46463 0.1877,1.01977 -0.058,1.23366 -0.2461,0.21387 -0.4211,-0.16621 -0.3889,-0.84478 z m 17.2719,0.12461 c -0.6735,-1.52555 0.8614,-2.85974 2.0757,-1.80426 0.6982,0.60687 0.6231,1.01237 -0.3431,1.85212 -1.1555,1.00445 -1.2695,1.00129 -1.7326,-0.0478 z m 12.2891,0.21283 c 0,-0.3749 0.3332,-0.50262 0.7405,-0.28384 0.4072,0.2188 0.7405,0.52553 0.7405,0.68164 0,0.15618 -0.3333,0.28384 -0.7405,0.28384 -0.4073,0 -0.7405,-0.30674 -0.7405,-0.68164 z m 77.766298,-0.26769 c -0.9844,-1.03105 -0.5478,-2.91257 0.6758,-2.91257 0.4057,0 1.0756,0.54887 1.4887,1.21971 1.0352,1.68136 -0.8028,3.11893 -2.1645,1.69286 z m -43.3323,-1.43716 c -1.0086,-2.1105 -0.9771,-11.71362 0.041,-12.44796 1.4073,-1.01524 1.6329,-0.22272 1.9178,6.73495 0.1778,4.34538 0,6.45983 -0.5731,6.6246 -0.4589,0.13319 -1.0824,-0.27711 -1.3857,-0.91159 z m 64.306,-1.18133 c -0.2411,-0.54628 -0.245,-1.16134 -0.01,-1.36682 0.7472,-0.64947 2.7152,0.34668 2.7152,1.37437 0,1.28475 -2.1386,1.27879 -2.7065,-0.007 z m -142.999398,-0.41475 c 0.4577,-1.19347 2.0517,-1.39141 2.0517,-0.25478 0,0.56051 -0.5276,1.01911 -1.1724,1.01911 -0.6448,0 -1.0405,-0.34396 -0.8793,-0.76433 z m 106.861998,0.16512 c -0.2343,-0.32955 -0.1,-0.77436 0.2986,-0.98847 0.4647,-0.24959 0.4299,-0.95156 -0.097,-1.95635 -0.6275,-1.19721 -0.5934,-1.80587 0.1446,-2.57888 1.5343,-1.60691 2.3845,-0.13447 1.8181,3.1488 -0.4904,2.84236 -1.2441,3.66937 -2.1645,2.3749 z m 25.1998,-0.47394 c -0.2605,-0.59019 -0.1519,-1.35277 0.2413,-1.69457 1.0904,-0.94782 3.036,-0.0128 3.036,1.46018 0,1.61442 -2.5864,1.79941 -3.2773,0.23439 z m -107.054998,-0.48238 c 0,-0.56051 0.5276,-1.0191 1.1724,-1.0191 0.6448,0 1.0405,0.34394 0.8793,0.76432 -0.4577,1.19347 -2.0517,1.39141 -2.0517,0.25478 z m 19.6708,0.33564 c -0.2254,-0.31692 0.078,-0.73873 0.6731,-0.93737 1.1571,-0.38597 2.1453,0.41661 1.3568,1.10197 -0.6694,0.58186 -1.5499,0.51047 -2.0299,-0.16457 z m 24.017798,-2.37384 c 0,-3.79884 1.7533,-3.5757 2.0789,0.26455 0.177,2.08679 -0.029,2.68549 -0.9256,2.68549 -0.8763,0 -1.1533,-0.70848 -1.1533,-2.95004 z m 17.0312,1.66275 c 0,-0.70802 0.4609,-1.2873 1.0243,-1.2873 0.5634,0 1.1987,0.57928 1.4117,1.2873 0.2872,0.95484 0.023,1.28729 -1.0244,1.28729 -0.918,0 -1.4116,-0.45017 -1.4116,-1.28729 z m 70.4170997,0.6818 c -1.1191,-0.60117 -0.6037,-2.61276 0.6694,-2.61276 1.0842,0 1.826,1.88852 1.0178,2.59107 -0.3714,0.32279 -1.1091,0.33228 -1.6872,0.0217 z M -126.68442,92.100637 c -0.5158,-1.16846 0.2334,-2.28358 1.5343,-2.28358 1.1327,0 1.8198,1.23237 1.3457,2.41367 -0.4424,1.10255 -2.3744,1.01529 -2.88,-0.13009 z m -15.6619,-0.47333 c 0.4577,-1.19345 2.0518,-1.39141 2.0518,-0.25478 0,0.56051 -0.5276,1.01912 -1.1725,1.01912 -0.6448,0 -1.0405,-0.34396 -0.8793,-0.76434 z m 40.9347,0.13118 c -0.5461,-0.7681 0.1469,-1.94143 1.147,-1.94143 0.900998,0 0.906798,1.7421 0.01,2.22527 -0.3792,0.20367 -0.8987,0.0759 -1.1545,-0.28384 z M 9.2834777,91.104347 c 0,-0.70801 0.4443,-1.28729 0.9873003,-1.28729 1.3928,0 1.9389,0.61939 1.4742,1.67204 -0.6045,1.36908 -2.4615003,1.0788 -2.4615003,-0.38475 z M -156.28902,90.846887 c -0.2711,-0.61401 -0.1264,-1.43496 0.3217,-1.82437 0.5924,-0.51493 0.9489,-0.40356 1.3074,0.40834 0.271,0.61401 0.1263,1.43497 -0.3217,1.82437 -0.5924,0.51494 -0.949,0.40357 -1.3074,-0.40834 z m 118.181398,-0.67002 c 0,-2.06704 1.2053,-2.65401 2.1843,-1.06382 1.1544,1.87495 0.9516,2.63495 -0.7033,2.63495 -1.0765,0 -1.481,-0.42911 -1.481,-1.57113 z m 20.3856,0.31508 c -0.639,-0.89876 0.1753,-1.96219 1.5024,-1.96219 1.3596,0 1.3704,0.91087 0.022,1.88339 -0.7142,0.51524 -1.1966,0.54018 -1.5246,0.0788 z m 37.1872,-1.32719 c -2.5288,-2.20307 -2.5869,-3.2096 -0.1852,-3.2096 1.0182,0 1.8513,0.24533 1.8513,0.54517 0,0.29984 0.6595,1.20615 1.4656,2.01403 1.4881,1.49146 1.3888,2.6576 -0.2135,2.50721 -0.4851,-0.0454 -1.7983,-0.8811 -2.9182,-1.85681 z m -153.291198,-0.37611 c -0.7206,-0.62635 0.2688,-2.18984 1.3858,-2.18984 0.5673,0 1.0315,0.57929 1.0315,1.28729 0,1.21171 -1.4421,1.75017 -2.4173,0.90255 z m 103.616898,-0.0443 c -0.9538,-0.82911 -0.5055,-3.43279 0.5911,-3.43279 1.0789,0 2.6177,1.86692 2.6177,3.17594 0,0.75117 -2.4174,0.94469 -3.2088,0.25685 z m -121.439498,-1.28729 c -0.8521,-0.7406 -0.5393,-1.50185 0.617,-1.50185 0.6109,0 1.1108,0.43446 1.1108,0.96548 0,1.00509 -0.8758,1.27698 -1.7278,0.53637 z m 132.027098,-0.56366 c -0.6843,-0.71669 -0.7233,-1.18789 -0.1404,-1.69457 1.1671,-1.01445 3.1284,-0.14943 3.1284,1.37984 0,1.54604 -1.6467,1.71951 -2.988,0.31473 z m 11.6068997,0.54617 c -0.885,-0.76927 -0.4782,-2.12801 0.6372,-2.12801 0.6109,0 1.1107,0.41738 1.1107,0.92749 0,1.07532 -1.0569,1.80118 -1.7479,1.20052 z M -137.95872,86.317157 c 0.1407,-0.59047 0.5891,-1.05829 0.9963,-1.03959 1.0991,0.0505 0.8972,1.49045 -0.2558,1.82452 -0.6228,0.18044 -0.9004,-0.11385 -0.7405,-0.78493 z m 63.374498,-1.13859 c -0.4276,-2.44742 0.6814,-4.84899 1.7929,-3.88282 0.9548,0.82992 0.4844,5.45893 -0.5857,5.76401 -0.4657,0.13282 -1.0011,-0.70151 -1.2072,-1.88119 z m -47.805098,-0.0279 c 0.1302,-0.79652 0.7365,-1.4482 1.3474,-1.4482 0.6109,0 1.2172,0.65168 1.3473,1.4482 0.1822,1.1146 -0.1282,1.44821 -1.3473,1.44821 -1.2191,0 -1.5295,-0.33361 -1.3474,-1.44821 z m 69.225198,1.0191 c -0.2715,-0.236 -0.4937,-0.98135 -0.4937,-1.65631 0,-1.75416 2.5293,-1.17845 2.8284,0.64378 0.2278,1.38838 -1.1933,2.00471 -2.3347,1.01253 z m -59.999398,-0.66114 c -0.885,-0.76926 -0.4782,-2.12799 0.6372,-2.12799 0.6109,0 1.1107,0.41736 1.1107,0.92747 0,1.07532 -1.0569,1.8012 -1.7479,1.20052 z m 119.4849977,-0.5725 c 0,-0.56053 0.3958,-0.90447 0.8794,-0.76434 1.373,0.39781 1.6007,1.78344 0.2931,1.78344 -0.6448,0 -1.1725,-0.45861 -1.1725,-1.0191 z m -69.3093997,-0.52566 c -0.271,-0.61401 -0.1263,-1.43496 0.3217,-1.82437 0.5924,-0.51491 0.949,-0.40356 1.3074,0.40834 0.2711,0.61401 0.1263,1.43497 -0.3217,1.82439 -0.5924,0.51492 -0.9489,0.40355 -1.3074,-0.40836 z m -36.5799,-0.74599 c 0,-0.55192 0.3386,-0.82154 0.7525,-0.59919 0.4139,0.22237 0.5609,0.67392 0.3266,1.00346 -0.6348,0.89278 -1.0791,0.72631 -1.0791,-0.40427 z m 60.8678,0.23107 c -1.0941,-0.95106 -1.1473,-2.23088 -0.1156,-2.7851 1.0825,-0.58156 2.9295,0.89943 2.9295,2.34899 0,1.36611 -1.48,1.59548 -2.8139,0.43611 z m -108.629098,-0.51491 c 0.2517,-0.35401 0.7712,-0.64365 1.1544,-0.64365 0.3832,0 0.6968,0.28964 0.6968,0.64365 0,0.35401 -0.5195,0.64365 -1.1544,0.64365 -0.635,0 -0.9485,-0.28964 -0.6968,-0.64365 z m 161.922798,-0.43048 c 0.1436,-0.65478 1.025,-1.2734 1.983,-1.39183 1.335,-0.16512 1.666,0.0529 1.4658,0.96548 -0.1436,0.65478 -1.025,1.2734 -1.983,1.39183 -1.335,0.16512 -1.666,-0.0529 -1.4658,-0.96548 z m -48.3168,-2.4302 c -1.5579,-2.8809 -1.681,-4.86054 -0.3118,-5.0142 0.9866,-0.11074 6.3676,6.60722 5.8619,7.3184 -0.2176,0.30606 -1.2073,0.55648 -2.1994,0.55648 -1.4087,0 -2.1425,-0.6265 -3.3507,-2.86068 z m 11.1657,2.21703 c 0,-0.35401 0.5195,-0.64366 1.1545,-0.64366 0.6349,0 0.9484,0.28965 0.6967,0.64366 -0.2517,0.35401 -0.7712,0.64365 -1.1544,0.64365 -0.3832,0 -0.6968,-0.28964 -0.6968,-0.64365 z m 10.3668,-0.28384 c 0,-0.5519 0.3332,-1.00347 0.7405,-1.00347 0.4073,0 0.7405,0.27255 0.7405,0.60567 0,0.33312 -0.3332,0.78467 -0.7405,1.00346 -0.4073,0.2188 -0.7405,-0.0538 -0.7405,-0.60566 z m -118.477598,-0.70184 c 0,-1.14277 1.778,-1.90309 2.9624,-1.26683 0.5823,0.31283 0.5667,0.693 -0.055,1.34434 -1.1511,1.20564 -2.9072,1.15884 -2.9072,-0.0775 z m 18.5121,0.0202 c 0,-0.53101 0.4998,-0.96548 1.1107,-0.96548 0.6109,0 1.1108,0.43447 1.1108,0.96548 0,0.53101 -0.4999,0.96548 -1.1108,0.96548 -0.6109,0 -1.1107,-0.43447 -1.1107,-0.96548 z m -21.8443,-0.32184 c 0.2517,-0.354 0.6046,-0.64364 0.7842,-0.64364 0.1796,0 0.3265,0.28964 0.3265,0.64364 0,0.35401 -0.3529,0.64365 -0.7842,0.64365 -0.4313,0 -0.5782,-0.28964 -0.3265,-0.64365 z m -8.9552,-0.74128 c -0.6284,-0.88369 1.6507,-2.47695 3.5431,-2.47695 1.8234,0 1.6846,1.00416 -0.3063,2.21628 -1.9655,1.19666 -2.5385,1.24282 -3.2368,0.26067 z m 88.163498,-0.6108 c -0.6651,-1.82136 0.6966,-2.98319 2.2137,-1.88879 0.6281,0.45314 1.1421,1.36773 1.1421,2.03238 0,1.69007 -2.7289,1.57328 -3.3558,-0.14359 z m -65.369998,-0.41055 c 0.3717,-1.67782 2.8226,-1.86495 2.8226,-0.21549 0,0.9211 -0.4756,1.33448 -1.5353,1.33448 -1.0597,0 -1.4584,-0.34662 -1.2873,-1.11899 z m 30.591098,0.31442 c -0.6213,-1.32299 0,-3.05732 1.0872,-3.05732 0.8909,0 0.9098,1.08029 0.051,2.89641 -0.559,1.18172 -0.6523,1.19492 -1.1379,0.16093 z m 91.1909997,-0.14031 c -0.4684,-1.06082 0.6228,-1.90785 1.7073,-1.32529 0.7859,0.4222 0.2095,2.27015 -0.7082,2.27015 -0.3201,0 -0.7697,-0.42518 -0.9991,-0.94486 z m 9.8850003,0.30121 c 0,-0.35401 0.4998,-0.64365 1.1107,-0.64365 0.6109,0 1.1107,0.28964 1.1107,0.64365 0,0.35401 -0.4998,0.64365 -1.1107,0.64365 -0.6109,0 -1.1107,-0.28964 -1.1107,-0.64365 z m -27.0203,-0.63316 c -0.5462,-0.7681 0.1471,-1.94143 1.147,-1.94143 0.901,0 0.9068,1.7421 0.01,2.22527 -0.3791,0.20369 -0.8987,0.0759 -1.1545,-0.28384 z m -96.304398,-0.70178 c -0.2704,-0.38021 0.2099,-1.34022 1.067,-2.13335 1.1266,-1.04238 1.5585,-2.27785 1.5585,-4.45789 0,-2.97383 0.8955,-3.98331 1.772,-1.99771 0.7421,1.68092 0.5163,3.61407 -0.7618,6.52322 -1.1724,2.66833 -2.6218,3.49183 -3.6357,2.06573 z m 29.696798,0.10874 c -0.2717,-0.38203 -0.165,-1.20378 0.2368,-1.8261 0.6931,-1.07307 0.7576,-1.07108 1.2492,0.0381 0.5967,1.34662 -0.6949,2.90069 -1.486,1.78793 z m 77.5306997,-1.5772 c -2.3309,-2.08584 -2.464,-2.9895 -0.4404,-2.9895 0.5431,0 0.9873,0.44162 0.9873,0.98141 0,0.53976 0.8331,1.2567 1.8513,1.59318 1.0181,0.33647 1.85119998,1.05342 1.85119998,1.59318 0,1.58737 -1.67899998,1.1218 -4.24939998,-1.17827 z m -58.5609997,0.44299 c 0.3602,-1.61477 2.0906,-1.8365 2.0906,-0.26789 0,0.79062 -0.4781,1.34093 -1.165,1.34093 -0.6896,0 -1.0673,-0.43792 -0.9256,-1.07304 z m -63.812598,-0.8579 c 0,-0.71516 0.4937,-1.28731 1.1107,-1.28731 0.6171,0 1.1108,0.57215 1.1108,1.28731 0,0.71515 -0.4937,1.2873 -1.1108,1.2873 -0.617,0 -1.1107,-0.57215 -1.1107,-1.2873 z m 86.636798,0.0688 c 0,-1.35874 1.9181,-2.30352 2.6336,-1.29723 0.6964,0.97947 -0.2194,2.51567 -1.4997,2.51567 -0.6236,0 -1.1339,-0.5483 -1.1339,-1.21844 z m 14.3996,0.51871 c -0.2737,-0.38487 -0.1128,-1.03412 0.3573,-1.44283 0.6462,-0.56169 1.0162,-0.51623 1.5157,0.18626 0.7058,0.99261 0.3499,1.9563 -0.7224,1.9563 -0.3592,0 -0.877,-0.31489 -1.1506,-0.69973 z m -110.168998,-0.37302 c -0.8521,-0.74061 -0.5393,-1.50185 0.617,-1.50185 0.6109,0 1.1108,0.43447 1.1108,0.96548 0,1.00511 -0.8758,1.27698 -1.7278,0.53637 z m 19.5413,-0.19205 c -1.252,-0.67259 -0.4772,-2.59708 1.0456,-2.59708 0.6288,0 1.134,0.55653 1.134,1.2493 0,1.53288 -0.8531,2.06038 -2.1796,1.34778 z m 18.203298,0.17461 c -0.9154,-0.79567 -0.4612,-2.77164 0.6372,-2.77164 0.6109,0 1.1107,0.56219 1.1107,1.2493 0,1.34344 -0.9759,2.19341 -1.7479,1.52234 z M 5.6896777,75.237547 c -1.5417,-1.34595 -2.3166,-2.54493 -2.0439,-3.16263 0.3594,-0.8141 0.9705,-0.62379 3.3629,1.0474 2.975,2.07812 4.0066003,3.3891 3.2111003,4.08063 -0.8356003,0.7263 -2.0508003,0.19905 -4.5301003,-1.9654 z m -79.3405997,0.74102 c 0,-0.531 0.4999,-0.96545 1.1108,-0.96545 0.6109,0 1.1107,0.43445 1.1107,0.96545 0,0.53101 -0.4998,0.96548 -1.1107,0.96548 -0.6109,0 -1.1108,-0.43447 -1.1108,-0.96548 z m 55.0515,-0.0277 c -0.2412,-0.54627 -0.2451,-1.16133 -0.01,-1.36681 0.7472,-0.64947 2.7151,0.34667 2.7151,1.37437 0,1.28475 -2.1386,1.27878 -2.7064,-0.007 z m -71.3421,-0.66954 c 0,-0.56051 0.3957,-0.90446 0.8793,-0.76434 1.373,0.39784 1.6007,1.78344 0.2931,1.78344 -0.6448,0 -1.1724,-0.45859 -1.1724,-1.0191 z m -42.207698,-1.19567 c 0,-0.5519 0.3332,-1.00347 0.7405,-1.00347 0.4072,0 0.7405,0.27255 0.7405,0.60567 0,0.33312 -0.3333,0.78467 -0.7405,1.00346 -0.4073,0.21878 -0.7405,-0.0538 -0.7405,-0.60566 z m 77.750998,-0.35982 c 0,-0.85819 0.4936,-1.28728 1.4809,-1.28728 0.9873,0 1.481,0.42909 1.481,1.28728 0,0.8582 -0.4937,1.28731 -1.481,1.28731 -0.9873,0 -1.4809,-0.42911 -1.4809,-1.28731 z m 17.4226,-0.22874 c -0.8891,-0.56507 -1.1966,-1.27112 -0.8729,-2.00421 0.451,-1.02176 0.6607,-1.03898 2.1566,-0.17716 1.9105,1.10077 2.6218,3.05369 1.1123,3.05369 -0.5629,0 -1.6411,-0.39258 -2.396,-0.87239 z m 25.2321,-0.15107 c -0.5585,-1.26495 0.044,-2.19469 1.4218,-2.19469 1.1742997,0 2.7724997,2.18749 2.0542997,2.8118 -0.8952,0.77812 -3.0272997,0.39961 -3.4760997,-0.61711 z m -103.850898,-0.59376 c -0.4953,-1.12206 1.0629,-3.04687 2.0412,-2.52132 0.3612,0.194 0.6566,1.05973 0.6566,1.92386 0,1.75744 -1.991,2.19839 -2.6978,0.59746 z m 34.908898,0.33001 c -0.5399,-0.75941 0.1604,-1.93093 1.1545,-1.93093 0.3832,0 0.6967,0.57928 0.6967,1.2873 0,1.35749 -1.0773,1.73207 -1.8512,0.64363 z m 39.2458,0.15107 c -1.3952,-0.89096 -3.4615,-4.72273 -3.0497,-5.65539 0.7056,-1.59835 1.8052,-1.03795 3.8163,1.94502 2.1793,3.23241 1.7487,5.31668 -0.7666,3.71037 z m 12.4666,-0.51615 c -0.7151,-1.62004 0.9543,-2.57643 1.8782,-1.07594 0.7725,1.25467 0.4569,2.08468 -0.7925,2.08468 -0.3522,0 -0.8407,-0.45394 -1.0857,-1.00874 z m 6.9711,0.52093 c -1.3806,-0.26659 -1.8378,-2.73044 -0.5067,-2.73044 1.2057,0 3.6538,1.2628 3.6538,1.88473 0,0.73821 -1.5487,1.15437 -3.1471,0.84571 z m -67.6345,-1.68061 c -0.5558,-1.25894 0.2015,-2.33711 1.6414,-2.33711 0.727,0 1.0357,0.4893 0.8819,1.39778 -0.2873,1.69732 -1.9203,2.30521 -2.5233,0.93933 z m 17.2352,0.46543 c -1.0173,-0.88427 -0.4896,-2.25004 0.7868,-2.03637 0.7127,0.11932 1.2958,0.62329 1.2958,1.11994 0,1.01623 -1.3064,1.5911 -2.0826,0.91643 z m -51.303498,-1.61533 c -0.2688,-0.37811 -0.03,-0.94032 0.5317,-1.24932 1.4678,-0.80811 2.1312,-0.71003 2.1312,0.31506 0,1.13917 -2.0146,1.84599 -2.6629,0.93426 z m 24.877398,-0.4747 c 0,-0.67015 0.5476,-1.40107 1.2168,-1.62428 1.6034,-0.53482 1.9867,-0.12005 1.3927,1.50691 -0.6103,1.67127 -2.6095,1.76118 -2.6095,0.11731 z m 35.0515,0.20969 c -0.5344,-1.21053 0.776,-2.5306 1.9083,-1.92235 1.2205,0.6557 0.9652,2.93109 -0.329,2.93109 -0.6237,0 -1.3343,-0.45394 -1.5793,-1.00874 z m 62.84069968,-0.40729 c -1.30549998,-1.13474 -1.08609998,-1.80222 0.5924,-1.80222 0.9873,0 1.48100002,0.42911 1.48100002,1.28731 0,1.45895 -0.76790002,1.64965 -2.07340002,0.51491 z M -31.734222,68.845927 c -0.8157,-1.84775 -0.4698,-2.84377 0.9878,-2.84377 0.7905,0 1.6572,-0.3094 1.9261,-0.68753 0.2689,-0.37815 0.955,-0.53204 1.5247,-0.34202 0.5697,0.19002 1.0358,0.0649 1.0358,-0.27795 0,-0.3429 0.3043,-0.62345 0.6762,-0.62345 0.3719,0 0.2988,0.86892 -0.1625,1.93095 -0.4612,1.06202 -1.2296,1.93094 -1.7077,1.93094 -0.478,0 -1.0609,0.43447 -1.2953,0.96548 -0.5607,1.27005 -2.4157,1.23733 -2.9852,-0.0527 z m -74.785898,-1.71738 c 0.2969,-0.44252 1.4829,-2.01533 2.6354,-3.49513 2.1878,-2.80926 2.607,-4.06774 1.3549,-4.06774 -0.4073,0 -0.7405,0.33792 -0.7405,0.75093 0,0.413 -0.2141,0.56482 -0.4757,0.33737 -0.2617,-0.22744 -0.051,-0.85858 0.4685,-1.402524 0.7023,-0.73561 1.1953,-0.80784 1.9243,-0.28196 0.539,0.388864 1.3302,0.518894 1.758198,0.28897 0.4279,-0.22991 1.0023,0.0898 1.2763,0.710554 0.2866,0.64911 0.127,1.23613 -0.3754,1.38173 -0.4806,0.13921 -0.8737,0.70169 -0.8737,1.2499 0,1.24383 -4.899998,5.33245 -6.390598,5.33245 -0.6757,0 -0.8929,-0.31111 -0.5617,-0.80455 z m 15.383398,-0.12006 c -0.5834,-1.32151 0.2383,-3.12944 1.1899,-2.61819 0.4102,0.22033 0.7457,0.9457 0.7457,1.61194 0,1.58572 -1.3662,2.29598 -1.9356,1.00625 z m 18.3035,0.33613 c -1.3994,-0.77022 -0.4245,-2.78162 1.2164,-2.50976 1.5308,0.25361 2.2637,3.10328 0.7943,3.08846 -0.5374,-0.005 -1.4422,-0.26583 -2.0107,-0.5787 z m 18.4282,-0.384 c -0.7264,-0.76082 -0.7264,-1.15596 0,-1.91676 1.1139,-1.16663 2.2282,-0.68734 2.2282,0.95838 0,1.64569 -1.1143,2.12499 -2.2282,0.95838 z m 36.0437,0.54345 c -0.934,-0.81182 -0.491,-1.50183 0.9641,-1.50183 0.9915,0 1.3214,0.30876 1.0315,0.96546 -0.4559,1.0326 -1.1959,1.23151 -1.9956,0.53637 z m -22.7141,-1.51139 c -0.6323,-1.02701 -0.5533,-1.37862 0.3798,-1.68985 1.082,-0.36093 3.2452,1.27791 3.305,2.50396 0.052,1.06006 -2.9375,0.39964 -3.6848,-0.81411 z m -70.586998,0.2241 c -1.0994,-0.95557 -0.3904,-2.1455 1.2783,-2.1455 1.7002,0 3.0482,1.38842 2.1262,2.18986 -0.5955,0.51766 -2.7909,0.48908 -3.4045,-0.0443 z m 104.0998977,-0.37547 c 0.1696,-0.44249 1.4192,-0.80455 2.7768,-0.80455 1.3575,0 2.6071,0.36206 2.7768,0.80455 0.2139,0.55785 -0.6377,0.80458 -2.7768,0.80458 -2.1392,0 -2.9908,-0.24673 -2.7768,-0.80458 z m -39.4308997,-1.12638 c 0,-0.96942 0.3867,-1.31695 1.2959,-1.16477 0.7127,0.11933 1.2958,0.64345 1.2958,1.16477 0,0.52132 -0.5831,1.04547 -1.2958,1.16477 -0.9092,0.15217 -1.2959,-0.19533 -1.2959,-1.16477 z m -32.9516,0 c 0.2517,-0.35401 0.6046,-0.64365 0.7842,-0.64365 0.1797,0 0.3265,0.28964 0.3265,0.64365 0,0.35401 -0.3528,0.64365 -0.7841,0.64365 -0.4314,0 -0.5783,-0.28964 -0.3266,-0.64365 z m -17.12,-0.93464 c -0.5211,-1.18037 0.2373,-2.2836 1.5698,-2.2836 1.524,0 2.1014,1.2152 1.0838,2.28097 -1.1391,1.19312 -2.1276,1.19409 -2.6536,0.002 z m 33.7481,-0.0651 c -0.6687,-0.70038 -0.7116,-1.1851 -0.1484,-1.67469 0.949,-0.82491 2.4027,-0.18026 2.4027,1.06541 0,1.37548 -1.2104,1.70262 -2.2543,0.60928 z m 50.0156,0.35618 c 2.0572,-0.76841 3.5082997,-0.76841 2.9619,0 -0.2517,0.35401 -1.3543,0.62329 -2.4503,0.59842 -1.7792,-0.0403 -1.834,-0.10454 -0.5116,-0.59842 z m -21.0491,-1.5518 c -0.6195,-0.64886 -0.6362,-1.03226 -0.058,-1.34272 0.9822,-0.52765 3.1125,0.87965 2.5433,1.68016 -0.5868,0.82534 -1.4923,0.70238 -2.4851,-0.33744 z m 17.3467,0.26451 c -0.2517,-0.35401 -0.1048,-0.64365 0.3265,-0.64365 0.4313,0 0.7842,0.28964 0.7842,0.64365 0,0.35401 -0.1469,0.64366 -0.3266,0.64366 -0.1796,0 -0.5324,-0.28965 -0.7841,-0.64366 z m -31.3342,-1.21111 c -1.938,-1.04683 -4.0383,-5.885704 -2.543,-5.859174 1.1338,0.0202 2.1466,1.01209 3.0782,3.01477 1.1076,2.381284 0.877,3.607164 -0.5352,2.844404 z m -45.5271,-0.50993 c -0.2134,-0.30026 0.065,-1.08471 0.6191,-1.74323 0.7295,-0.867204 1.5281,-1.083694 2.8963,-0.785204 2.3529,0.51331 2.4819,1.674884 0.1859,1.674884 -0.9367,0 -2.0653,0.31488 -2.5081,0.69972 -0.4427,0.38487 -0.9797,0.45407 -1.1932,0.15381 z m 20.345,-0.56573 c 0.3349,-1.398074 1.6491,-1.483624 1.9496,-0.12699 0.1562,0.70454 -0.2071,1.12639 -0.9697,1.12639 -0.7114,0 -1.1196,-0.41634 -0.9799,-0.99947 z m 18.9829,0.5598 c 0.5346,-0.18594 1.1732,-0.16311 1.4193,0.0507 0.246,0.21389 -0.1912,0.366 -0.9719,0.33806 -0.8626,-0.0308 -1.0381,-0.1834 -0.4474,-0.38887 z m 11.0195,-2.134924 c -0.4612,-1.06201 -1.0987,-1.93094 -1.4167,-1.93094 -0.8468,0 -0.7064,-2.42971 0.1675,-2.89923 0.4102,-0.22032 0.9588,0.12462 1.2193,0.76657 0.2605,0.64196 1.2942,1.94016 2.2971,2.88491 1.8614,1.753344 1.7316,3.109654 -0.2975,3.109654 -0.6222,0 -1.5086,-0.86893 -1.9698,-1.930964 z m -11.8881,-0.44659 c -0.885,-0.76927 -0.4781,-2.128 0.6372,-2.128 0.6109,0 1.1107,0.41737 1.1107,0.92749 0,1.0753 -1.0568,1.80118 -1.7479,1.20051 z m -24.9095,-0.87868 c 0,-0.3749 0.3332,-0.50264 0.7405,-0.28384 0.4072,0.21877 0.7404,0.52551 0.7404,0.68164 0,0.15617 -0.3332,0.28382 -0.7404,0.28382 -0.4073,0 -0.7405,-0.30674 -0.7405,-0.68162 z m -20.730298,-0.76659 c -0.001,-0.26551 0.5018,-0.48273 1.119198,-0.48273 0.7861,0 1.0727,-0.56719 0.9565,-1.89308 -0.2153,-2.456 2.0363,-4.66913 4.4896,-4.41295 2.6545,0.27718 2.6688,1.3424 0.036,2.69424 -1.4902,0.76514 -2.0422,1.39858 -1.5737,1.80581 0.3969,0.34498 0.5615,1.15957 0.3657,1.81017 -0.2666,0.88639 -0.9869,1.15516 -2.8729,1.07213 -1.3844,-0.0609 -2.518598,-0.32807 -2.520398,-0.59359 z m 10.370798,-0.79693 c -0.7427,-0.77777 -0.6807,-1.03587 0.3293,-1.37277 1.4589,-0.48663 3.0145,0.61884 2.2949,1.63088 -0.6833,0.96105 -1.5407,0.8767 -2.6242,-0.25811 z m 26.2059,0.0567 c -0.2711,-0.61401 -0.1264,-1.43496 0.3216,-1.82437 0.5924,-0.51493 0.949,-0.40357 1.3074,0.40834 0.2711,0.61401 0.1264,1.43497 -0.3217,1.82437 -0.5924,0.51492 -0.9489,0.40357 -1.3073,-0.40834 z m 7.2391,-1.81753 c -1.0621,-0.92322 -1.1534,-3.0742 -0.1306,-3.0742 0.4073,0 0.9739,-0.0215 1.2592,-0.0478 0.2853,-0.0263 0.7654,0.53183 1.0668,1.24018 0.6939,1.63031 -0.9066,3.00208 -2.1955,1.88177 z m -32.3815,-1.19934 c -0.6997,-0.98418 0.8189,-2.12323 2.2116,-1.65871 0.6383,0.21291 1.1605,0.83065 1.1605,1.37277 0,1.1249 -2.6177,1.34687 -3.3721,0.28594 z m 8.3597,0.31498 c -0.5932,-0.51563 0.1832,-2.18984 1.0155,-2.18984 0.3637,0 0.6613,0.57929 0.6613,1.28729 0,1.25461 -0.7855,1.67735 -1.6768,0.90255 z m 28.3435,-1.5311 c -0.862,-1.40004 -0.01,-2.15141 1.7751,-1.55744 1.4833,0.49477 1.5298,1.93078 0.078,2.41498 -0.6402,0.21355 -1.4143,-0.14468 -1.8532,-0.85754 z m 3.1087,-2.42877 c -1.9908,-2.47136 -1.3076,-3.67957 1.0694,-1.89149 1.03,0.77481 2.1871,1.91563 2.5712,2.53514 1.2,1.93537 -2.022,1.36572 -3.6406,-0.64365 z m -32.7374,-0.48273 c 0,-0.59001 0.3582,-0.96896 0.796,-0.84211 0.4379,0.12681 0.7961,0.5058 0.7961,0.84211 0,0.33629 -0.3582,0.71524 -0.7961,0.8421 -0.4378,0.12681 -0.796,-0.25209 -0.796,-0.8421 z m 16.7284,0.41664 c -0.2147,-0.30186 0.077,-1.09837 0.6469,-1.77003 0.8001,-0.94212 1.2402,-1.04723 1.9258,-0.45992 0.4888,0.41872 0.6883,1.21523 0.4433,1.77003 -0.4762,1.07873 -2.3707,1.36762 -3.016,0.45992 z m 7.0382,-0.0566 c -1.1191,-0.6012 -0.6037,-2.61278 0.6694,-2.61278 1.0842,0 1.826,1.88852 1.0178,2.59106 -0.3714,0.3228 -1.1091,0.33228 -1.6872,0.0217 z m -14.3717,-1.09752 c -1.0482,-0.91109 -0.455,-2.1589 1.0262,-2.1589 1.0352,0 1.4573,0.34953 1.2959,1.07304 -0.2643,1.18462 -1.5284,1.77574 -2.3221,1.08586 z m -21.2426,-1.44221 c 0,-0.82307 0.6559,-1.31049 2.0363,-1.51303 1.12,-0.16439 2.4945,-0.41446 3.0545,-0.55579 2.2465,-0.56704 1.4293,1.17348 -1.0295,2.19267 -3.3612,1.39324 -4.0613,1.37189 -4.0613,-0.12389 z m 40.4362,-0.54002 c -0.8721,-0.75808 -0.4557,-4.03856 0.5126,-4.03856 1.1612,0 2.7398,1.28291 2.7398,2.22667 0,0.86077 -2.6489,2.33646 -3.2524,1.81189 z m -30.8099,-1.7858 c -0.6493,-0.68001 -0.7271,-1.23457 -0.2335,-1.66366 0.4937,-0.42911 1.0652,-0.30366 1.7144,0.37638 0.6493,0.68001 0.7271,1.23457 0.2335,1.66366 -0.4937,0.42911 -1.0652,0.30366 -1.7144,-0.37638 z m 21.2889,-0.76551 c -1.4889,-0.33819 -1.8259,-3.43045 -0.3702,-3.39679 1.4604,0.0337 4.4209,2.44664 3.9003,3.17885 -0.4839,0.68053 -1.2779,0.72954 -3.5301,0.21794 z m -9.4412,-1.52524 c 0,-0.3749 0.3332,-0.50263 0.7405,-0.28384 0.4073,0.2188 0.7405,0.52554 0.7405,0.68164 0,0.15618 -0.3332,0.28384 -0.7405,0.28384 -0.4073,0 -0.7405,-0.30674 -0.7405,-0.68164 z M -187.71092,161.59706 c 2.0304,-1.09074 0.07,-6.05651 -2.4342,-6.16661 -0.4799,-0.0211 -2.5388,-0.28664 -4.5751,-0.59007 -2.2482,-0.33501 -7.4247,-0.2678 -13.1791,0.1711 l -9.4767,0.72281 0.2206,1.9415 c 0.2038,1.79404 0.6144,2.05097 5.404,3.38269 4.4858,1.24721 6.4009,1.40813 14.2291,1.19557 4.9751,-0.13509 9.3903,-0.43074 9.8114,-0.657 z m 63.2515,-1.12527 c -1.1749,-0.78843 -4.5802,-3.27305 -7.5674,-5.52139 -5.3724,-4.04354 -5.4487,-4.07512 -7.0346,-2.91112 -0.8819,0.64723 -1.8692,1.46641 -2.1942,1.82042 -0.8686,0.94636 0.025,6.89665 1.1266,7.50451 0.5199,0.28676 4.7388,0.52582 9.3755,0.53123 l 8.4303,0.01 -2.1362,-1.4335 z m 121.5050977,-5.05864 c 0.5587,-0.50039 1.2412,-2.25701 1.5165,-3.90359 0.45929998,-2.74619 0.3591,-3.03285 -1.2114,-3.46613 -1.2607,-0.34779 -1.9146,-0.16583 -2.4797,0.69003 -0.4222,0.63931 -1.776,2.19908 -3.0085,3.46614 -4.9451997,5.08391 -4.9368997,4.77962 -0.1221,4.43255 2.3591,-0.17005 4.7465,-0.7186 5.3051,-1.219 z m 13.9368003,-1.50444 c 8.889,-1.77286 16.1362,-2.94543 18.2046,-2.94543 1.1495,0 3.1393,-0.31797 4.4219,-0.70662 1.9885,-0.60253 2.332,-1.02354 2.332,-2.85842 0,-1.1835 0.3332,-2.33083 0.7404,-2.54962 0.4073,-0.21879 0.7405,-0.81516 0.7405,-1.32528 0,-1.45853 -2.1538,-1.29232 -13.3287,1.02857 -1.4254,0.29605 -4.9242,0.97568 -7.7751,1.5103 -13.6205003,2.55423 -13.6990003,2.576 -13.6990003,3.80245 0,0.65078 -0.3486,1.74948 -0.7747,2.44153 -1.65630002,2.69007 1.186,3.18851 9.1381003,1.60252 z m 59.8099,-4.89902 c 1.1717,-0.54502 1.4323,-1.36877 1.4323,-4.52574 0,-2.82895 -0.2952,-3.95791 -1.1056,-4.22823 -1.6025,-0.5345 -17.1845,0.90682 -21.1573,1.95704 -1.8594,0.49151 -4.2276,0.75292 -5.2628,0.58091 -1.419,-0.23578 -2.2726,0.11873 -3.4689,1.44064 -0.8727,0.96437 -1.5867,1.97983 -1.5867,2.2566 0,0.27676 1.916,1.08376 4.2578,1.79333 3.4508,1.04559 6.267,1.29975 14.8584,1.34093 6.0125,0.0288 11.2205,-0.23757 12.0328,-0.61548 z m 26.794,-4.32415 c 3.489502,-2.69797 -0.2272,-5.43054 -7.8403,-5.76422 -4.2275,-0.18529 -5.735,0.0489 -9.0262,1.40226 -5.6113,2.30743 -6.5663,5.60828 -1.5227,5.26302 1.3657,-0.0935 4.1043,-0.008 6.0857,0.18967 5.3373,0.53281 10.8338,0.0455 12.3035,-1.09073 z m -239.361898,-0.74172 c 0,-0.76297 -6.22,-3.92305 -7.7218,-3.92305 -1.3887,0 -1.5539,2.13665 -0.2384,3.08248 0.839,0.60328 3.1642,1.06613 6.6644,1.32662 0.7127,0.053 1.2958,-0.16568 1.2958,-0.48605 z m -23.2647,-0.70481 c 10.3899,0 11.4145,-0.10133 11.3899,-1.12638 -0.052,-2.14582 -12.7337,-7.95244 -21.0768,-9.65017 -3.9307,-0.79985 -8.1362,-1.01459 -17.4014,-0.88855 -6.7199,0.0914 -12.7937,0.30898 -13.4973,0.48346 -0.7331,0.1818 -1.6232,1.4273 -2.0847,2.91686 -0.679,2.19196 -0.6092,2.7879 0.445,3.80044 1.7533,1.68408 7.9846,3.11857 15.2515,3.51102 3.3988,0.18356 7.8457,0.58304 9.8821,0.88775 2.0363,0.3047 4.1462,0.44411 4.6886,0.30979 0.5423,-0.13432 6.1237,-0.24422 12.4031,-0.24422 z m 277.9749,-1.00511 c 3.0453,-0.55223 5.7008,-1.14647 5.9011,-1.32054 0.4335,-0.37689 -13.1759,0.36453 -14.7494,0.80351 -0.9597,0.26773 -0.9597,0.37574 0,0.90326 1.4849,0.81628 2.4491,0.77419 8.8483,-0.38623 z m -325.2044,-5.5601 c 1.0658,-0.92646 1.1566,-2.84758 0.1854,-3.92124 -0.3869,-0.42756 -1.8864,-1.97106 -3.3322,-3.42999 -1.4459,-1.45894 -2.6289,-2.97212 -2.6289,-3.36263 0,-0.39051 -0.9688,-1.14551 -2.153,-1.67777 -1.9399,-0.87199 -2.7839,-0.85121 -8.5293,0.20999 -3.507,0.64776 -6.5843,1.35845 -6.8384,1.57931 -0.6757,0.58732 0.9936,2.13024 5.7373,5.30314 7.3186,4.89502 15.2651,7.29322 17.5592,5.29919 z m 228.527198,-2.83655 c 1.335,-0.44528 1.6699,-5.05834 0.4162,-5.73185 -0.754,-0.40503 -7.3902003,4.62972 -7.3902003,5.60674 0,0.60235 5.2603003,0.69672 6.9740003,0.12511 z m 31.9015,-1.98019 c 2.4436,-0.24586 4.6095,-0.48181 4.8131,-0.52432 0.2036,-0.0425 1.8219,-0.30806 3.596,-0.59013 1.7742,-0.28206 5.4396,-1.30148 8.1454,-2.26538 l 4.9195,-1.75255 v -3.14978 -3.14977 l -3.3321,-0.53422 c -1.8327,-0.29382 -7.3308,-0.41301 -12.218,-0.26487 -7.8648,0.2384 -9.9495,0.5669 -18.1419,2.85867 -5.0909,1.42413 -10.8389,3.19045 -12.7734,3.92516 -3.0676,1.16505 -3.5173,1.58154 -3.5173,3.25767 0,1.15297 0.5184,2.18254 1.2958,2.57349 1.3564,0.68208 19.1071,0.43162 27.2129,-0.38397 z m -274.360098,-10.42309 7.0243,-1.04447 -0.2434,-2.87931 c -0.2586,-3.0595 -2.3656,-6.8366 -6.2431,-11.19169 -7.7452,-8.699203 -11.4141,-11.309803 -15.9304,-11.335203 -2.9864,-0.0164 -3.2574,0.13246 -4.3507,2.39577 -1.7488,3.620603 -0.9582,13.162833 1.4732,17.779043 2.4399,4.63255 6.8707,8.27573 9.3946,7.72458 1.0181,-0.22234 5.0121,-0.87427 8.8755,-1.44872 z m 311.384298,-0.74509 c 5.6919,-2.53 8.993,-5.27646 11.1908,-9.31046 1.9719,-3.61954 2.2135,-4.93564 0.8206,-4.47104 -0.5209,0.17369 -4.0721,0.52672 -7.8915,0.78436 l -6.9445,0.46844 -1.3662,3.54007 c -1.7267,4.47408 -3.698,7.72378 -4.6853,7.72378 -1.1091,0 -2.7379,2.50546 -2.1586,3.32028 0.7909,1.11236 6.1565,0.11291 11.0347,-2.05543 z M -171.95332,91.999707 c -1.1619,-7.52056 -1.1649,-7.33269 0.115,-7.33269 0.6841,0 2.2273,0.63201 3.4293,1.40446 l 2.1854,1.40444 1.9627,-1.56537 c 2.038,-1.62547 7.6757,-8.75783 7.6757,-9.71074 0,-1.26725 -2.8467,-0.36262 -6.2941,2.00018 -2.0364,1.39565 -5.6352,3.46979 -7.9974,4.60918 -3.8368,1.85066 -7.1826,4.69692 -7.1826,6.11028 0,0.90472 4.724,4.78508 5.5235,4.53719 0.4239,-0.13137 0.686,-0.78703 0.5825,-1.45693 z m -70.385,-0.59153 c 0.3898,-0.33883 -1.4575,-8.09814 -2.0507,-8.6138 -0.1728,-0.15016 -0.314,1.80293 -0.314,4.33997 0,3.4149 0.2564,4.61281 0.9874,4.61281 0.543,0 1.1628,-0.15253 1.3773,-0.33898 z m 272.565998,-7.3232 c 0.6987,-1.02813 1.2704,-2.45926 1.2704,-3.18025 0,-0.72102 0.3332,-1.48992 0.7404,-1.70872 1.3795,-0.74106 0.8504,-4.75678 -0.7404,-5.62038 -0.8146,-0.44215 -1.481,-1.13434 -1.481,-1.53817 0,-0.94388 -3.3403,-3.13447 -10.6406,-6.97817 -5.9449,-3.13008 -7.0882,-3.17261 -7.1197,-0.2649 -0.01,0.57525 -0.2019,1.87865 -0.4348,2.89642 -0.3356,1.46685 0.1255,2.46201 2.2242,4.80031 1.4561,1.6224 3.4665,3.33076 4.4674,3.79638 1.6308,0.75867 2.0868,0.66958 4.3908,-0.85796 1.414,-0.93749 2.7598,-1.70454 2.9906,-1.70454 0.857,0 0.3802,3.24647 -0.79,5.37944 -1.1837,2.15771 -1.166,2.25452 0.8284,4.52737 1.1209,1.27738 2.2598,2.32251 2.5309,2.32251 0.2712,0 1.0646,-0.84121 1.7634,-1.86934 z m -205.570198,-2.29744 c 1.153,-0.52171 3.3625,-1.43046 4.91,-2.01949 1.5475,-0.58901 4.3094,-2.33446 6.1375,-3.87881 1.828,-1.54434 3.5958,-2.80789 3.9284,-2.80789 0.3326,0 1.0226,-2.67917 1.5334,-5.95374 0.8769,-5.62191 2.2473,-11.196349 3.2844,-13.360189 0.3022,-0.63042 -0.1219,-1.19368 -1.2113,-1.60911 -1.4613,-0.55717 -1.6447,-1.03141 -1.4301,-3.6965 0.1843,-2.28894 -0.013,-3.05732 -0.7871,-3.05732 -0.5683,0 -2.0119,-0.90636 -3.2081,-2.01412 -1.1962,-1.10777 -4.0076,-2.729 -6.2476,-3.60272 -4.0934,-1.59671 -5.1511,-2.38951 -5.172,-3.87697 -0.019,-1.3591 2.3273,-0.90762 8.0442,1.54774 4.0868,1.75527 5.7799,2.18982 6.6709,1.71212 3.7137,-1.99118 8.1034,-3.90393 9.8042,-4.27201 2.6021,-0.56313 7.2571,-3.68915 13.349,-8.9644 2.7595,-2.38955 5.5282,-4.34463 6.1527,-4.34463 0.6246,0 2.5179,-1.16612 4.2075,-2.59138 4.2514,-3.58628 11.66,-8.35064 12.9852,-8.35064 2.3904,0 0.3149,-1.6219305 -2.3208,-1.8136705 -2.1195,-0.15417 -3.2905,0.16603 -4.7559,1.3002905 -5.2711,4.07998 -8.4355,5.24692 -9.2466,3.4098 -0.2344,-0.53101 -0.9365,-0.96548 -1.5602,-0.96548 -0.6236,0 -1.1339,-0.28964 -1.1339,-0.64365 0,-0.35399 -0.6764,-0.64363 -1.5031,-0.64363 -0.8267,0 -3.2336,-1.4651105 -5.3485,-3.2558005 -2.2488,-1.90397 -4.3149,-3.13427 -4.9762,-2.96313 -2.4595,0.63651 -8.5823,2.54797 -9.3663,2.92402 -1.1064,0.53071 -8.7625,5.3664805 -12.6198,7.9709905 -4.513,3.04721 -9.2337,8.43216 -12.7257,14.51628 -1.6901,2.94468 -3.0729,5.49876 -3.0729,5.67575 0,0.17698 0.9974,-0.29549 2.2164,-1.05 2.0613,-1.27585 3.7075,-1.29129 3.7075,-0.0348 0,0.29482 -1.4902,1.97671 -3.3115,3.73753 -2.3735,2.29468 -4.8484,3.80267 -8.7375,5.3239 l -5.4261,2.12242 0.6046,4.56134 c 0.3325,2.50875 0.9081,5.28546 1.2791,6.17047 0.371,0.88502 0.8948,3.057319 1.1641,4.827359 0.2693,1.77003 0.9127,3.65269 1.4297,4.18372 1.1676,1.19916 2.6308,4.90034 2.6308,6.65475 0,1.7513 5.833,10.0801 7.0595,10.0801 0.5312,0 1.9092,-0.42685 3.0621,-0.94855 z m -68.0493,-8.48805 c -0.1016,-1.82705 -0.3942,-3.20936 -0.6503,-3.07177 -0.7104,0.38165 -1.5261,6.66302 -0.9672,7.44896 0.9431,1.32654 1.8048,-1.00532 1.6175,-4.37719 z m 341.385398,4.15867 c 1.0255,-0.89138 1.1373,-9.77794 0.1482,-11.77875 -0.5138,-1.03928 -0.6464,-0.83229 -0.6884,1.0744 -0.029,1.29892 -0.5713,4.12333 -1.2059,6.27644 -1.3792,4.6797 -0.6553,6.51538 1.7462,4.42791 z m -249.395398,-1.51838 c 0,-0.5519 -0.3332,-0.82444 -0.7405,-0.60564 -0.4072,0.21877 -0.7405,0.67034 -0.7405,1.00344 0,0.33312 0.3333,0.60567 0.7405,0.60567 0.4073,0 0.7405,-0.45155 0.7405,-1.00347 z m 186.451698,-8.16851 c 0.4621,-0.79653 1.5427,-3.4757 2.4013,-5.95376 0.8586,-2.47804 1.8361,-5.084809 2.1722,-5.792829 2.0884,-4.3996 2.5296,-6.16723 2.5578,-10.24779 0.06,-8.63674 -4.3695,-16.41415 -8.7977,-15.44809 -1.43,0.31197 -1.8854,0.16329 -1.8854,-0.61528 0,-1.52634 -5.1042,-3.21284 -7.2052,-2.38074 -0.9147,0.36226 -2.1101,0.50959 -2.6563,0.32738 -0.6222,-0.20752 -1.4676,0.58316 -2.2631,2.11669 -1.4472,2.78962 -5.2626,6.24403 -7.5894,6.87128 -1.2242,0.33002 -1.6606,1.09641 -1.9724003,3.4637 -0.2601,1.97454 -0.073,3.37825 0.5339003,4.00535 1.3555,1.40085 1.8914,2.92426 3.0563,8.68926 1.1673,5.77686 0.8126,5.41088 10.2092,10.535909 3.4848,1.90067 6.9032,4.00057 7.5965,4.66645 1.6654,1.59957 2.8178,1.52832 3.8423,-0.23753 z m -148.799898,-6.64489 c 2.4031,-1.04205 5.4995,-5.030949 6.3336,-8.159019 0.3907,-1.46522 0.2237,-1.77004 -0.9694,-1.77004 -1.5566,0 -4.5108,2.81831 -4.5108,4.30336 0,0.50134 -1.1807,1.34034 -2.6239,1.86449 -2.7728,1.00704 -3.7353,2.215999 -3.0322,3.808689 0.545,1.23448 1.8767,1.22131 4.8027,-0.0474 z m 84.528298,-5.113959 c 0,-0.71215 -0.4855,-0.87185 -1.7871,-0.58786 -1.9243,0.4198 -4.8773,-1.51334 -4.8773,-3.1929 0,-0.86283 -2.1168,-1.9835 -2.7337,-1.44726 -0.8888,0.77253 1.0175,3.91758 3.0168,4.97729 2.8296,1.49979 6.3813,1.63933 6.3813,0.25073 z m 43.4719,-25.08542 c 1.1373,-1.23649 2.2424,-2.87581 2.4558,-3.64295 0.2133,-0.76714 1.264,-1.96338 2.3349,-2.65834 1.7694,-1.14835 2.2947,-1.19104 5.7611,-0.46823 2.0977,0.43743 4.0025,0.63151 4.2329,0.43128 0.2303,-0.20022 -0.2746,-1.31901 -1.1221,-2.48621 -0.8475,-1.16719 -2.1941,-3.13592 -2.9926,-4.37495 -0.7985,-1.23901 -2.8382,-3.55614 -4.5328,-5.14918 -1.6946,-1.59302 -3.6366,-3.4936705 -4.3157,-4.2236405 -2.5734,-2.76653 -18.5917003,-10.56562 -23.6646003,-11.52199 -2.9718997,-0.56031 -4.5976997,0.42982 -4.5976997,2.80008 0,1.16324 -1.0227,2.56222 -3.236,4.42673 -3.1848,2.68278 -4.6683,3.22499 -6.0571,2.21374 -1.4903,-1.08524 -6.1118,-2.02348 -11.4405,-2.32259 -3.0545,-0.1715 -6.7199,-0.49205 -8.1453,-0.71242 l -2.5917,-0.40068 2.5917,2.00802 c 3.1452,2.43688 9.7336,5.8018105 11.3597,5.8018105 2.4767,0 7.3352,2.7977 8.2861,4.77142 0.5265,1.09279 3.1475,3.88934 5.8245,6.21455 4.4466,3.86225 5.4283,4.38296 11.3576997,6.02424 6.696,1.85349 12.587,4.07531 13.2399,4.99353 0.8473,1.19174 3.3148003,0.38166 5.2518003,-1.72422 z M -122.01382,8.1074675 c 2.6842,-2.66175 7.1133,-4.86757 11.2003,-5.57807 1.3297,-0.23117 2.2919,-0.74389 2.1382,-1.13939 -0.3473,-0.89376 -17.3276,-1.10564 -21.6227,-0.26979 -4.4883,0.87345 -7.0346,1.87162 -7.0346,2.75768 0,0.43892 1.4395,2.14163 3.1988,3.7838 2.8463,2.6567505 3.5493,2.9857805 6.3787,2.9857805 2.7762,0 3.505,-0.32241 5.7413,-2.5400105 z m 104.604298,-6.88508 c 2.6153,-3.85301 1.9424,-4.92272 -3.6669,-5.82867 -5.8623,-0.94681 -19.2526,-1.09279 -19.2526,-0.20989 0,0.54135 2.4714,1.65576 8.5156,3.83976 0.8145,0.29433 2.9141,0.90903 4.6657,1.366 1.7516,0.45697 3.8852,1.3589 4.7413,2.0043 2.246,1.69317 3.205,1.46833 4.9969,-1.1715 z"
       id="path4509"
       inkscape:connector-curvature="0"
       sodipodi:nodetypes="css" />
  </g>
</svg>
