<?xml version="1.0" encoding="utf-8"?>

<!DOCTYPE svg PUBLIC "-//W3C//DTD SVG 1.1//EN" "http://www.w3.org/Graphics/SVG/1.1/DTD/svg11.dtd">
<svg version="1.1" id="Layer_1" xmlns="http://www.w3.org/2000/svg" xmlns:xlink="http://www.w3.org/1999/xlink" x="0px" y="0px"
	 viewBox="0 0 1107.296 1687.983" enable-background="new 0 0 1107.296 1687.983" xml:space="preserve">
<g>
	<path style="fill:orange" d="M781.885,45.273c46.023-15.054,19.467,97.455-30.586,136.869c-2.148,1.811-5.115,2.967-6.141,5.779
		c-24.661,54.211-77.572,85.331-137.8,94.069c-47.226,6.411-173.924,45.498-93.491,72.859
		c61.558,21.16,120.369,62.846,153.878,103.945c34.873,41.543,51.651,135.393,19.968,177.21c-1.751,2.268-1.354,5.356-1.906,8.03
		c-5.706,49.028-5.657,39.399,13.257,87.997c11.27,66.376,80.503-1.526,111.035-11.575c19.907-6.777,34.311,0.522,41.557,20.184
		c16.867,46.128-7.502,106.611-7.642,107.611c-3.536,54.595,51.941,81.896,55.203,131.15c0.716,5.926-0.466,11.903-0.405,17.777
		c16.704,35.347-6.446,83.498,12.265,107.999c-1.776,10.847-3.621,15.685-4.753,29.422c2.786,12.878,1.363,26.256-1.337,39.021
		c0.993,11.336-3.336,54.34,10.488,104.402c2.484,8.374-0.781,18.228,17.423,59.283c25.189,55.825,62.912,110.56,61.137,155.06
		c49.1,26.546,97.363,85.442,54.004,122.939c22.682-42.765-13.329-97.903-61.284-116.53
		c-1.502-63.688-70.125-152.238-83.865-220.682c-39.384,32.587-78.086,66.701-109.543,107.24
		c-3.068-43.254,68.809-69.445,85.668-114.063c28.07-5.584,25.635-62.277,17.622-65.648c-5.208,1.513-7.544,21.984-8.332,27.507
		c-2.639-7.056-4.848-14.284-7.823-21.21c1.196,18.301,5.655,41.13-17.113,27.558c3.193-6.095,5.241-15.421-0.276-19.588
		c-1.492,2.113-3.157,4.131-5.158,5.796c1.07-2.881,3.51-4.692,5.641-6.719c8.263-13.866,6.511-34.061,8.919-42.92
		c5.788,6.621,8.506,23.884,17.622,33.726c4.146-7.993-14.86-65.087-11.187-72.618c9.592,12.64,7.792,30.078,22.78,37.823
		c4.047-56.606,3.97-7.124-8.927-68.175c-28.841-7.496-46.766-10.541-76.327-6.271c-1.578,5.356-4.158,10.359-7.401,14.896
		c17.169-1.484,53.072,8.004,69.142,13.913c-23.156-3.299-41.251-10.562-71.117-11.204c-11.558,14.62-27.291,24.997-42.411,35.546
		c-38.304,25.25-112.77,2.087-132.97-31.561c-41.195,3.051-73.096,28.106-91.637,35.175c7.794-6.345,63.772-38.465,90.153-37.719
		c-0.897-1.992-1.725-4.011-2.484-6.046c-23.156-1.51-52.717,8.211-74.481,13.093c22.797-11.213,48.389-15.698,73.661-15.681
		c0-0.621,0.009-1.872,0.017-2.501c0.293,0.621,0.897,1.863,1.19,2.484c22.978,0.173,45.974,1.587,68.754,4.684
		c1.665-1.302,3.467-2.407,5.322-3.416c1.734,1.484,4.433,2.622,4.709,5.175c-0.906,4.14-11.048,2.881-15.198,2.191
		c0.957,1.276,2.493,2.355,2.7,4.071c-1.846,2.665-6.685,2.32-8.565-0.155c-0.052-2.044,2.199-2.993,3.45-4.244
		c-4.606-0.535-9.203-1.156-13.766-1.932c1.268,0.863,2.51,1.768,3.743,2.717c-2.277,3.657-7.237,4.459-11.127,3.467
		c-1.604-0.38-2.07-2.053-2.614-3.355c-1.906-0.017-3.795-0.026-5.684-0.034c-0.129,5.011-7.642,4.623-9.945,1.371
		c-4.175-0.052-8.341-0.043-12.507,0.086c25.357,21.959,70.47,20.012,99.633-0.949c-40.484-26.164-54.835-83.337-57.152-131.348
		c15.155,23.866,13.489,54.293,17.501,78.216c6.538,8.306,16.587,13.62,26.937,15.483c-3.166,0.561-6.297,1.354-9.316,2.476
		c17.846,33.187,64.167,0.762,49.596-4.347c-4.917-1.992-10.368-1.113-15.491-0.724c28.488-10.547,53.143-45.536,23.832-83.995
		c23.716-5.082,24.438,102.277-20.175,120.61c10.573,18.686,22.754,21.205,38.901,2.89c-4.942,0.733-9.867,1.535-14.741,2.579
		c-0.871,3.381-5.995,4.339-8.194,1.863c-0.44-2.389,1.975-3.899,3.373-5.434c0.837,0.509,1.682,1.035,2.536,1.57
		c6.331-1.898,13.016-2.208,19.399-3.735c3.329-3.838,5.65-8.427,7.97-12.921c-0.992-0.509-1.975-1.018-2.95-1.518
		c1.371,5.115-5.658,4.563-8.332,2.45c-2.398,0.621-4.779,1.32-7.133,2.079c0.474,4.088-6.616,5.632-8.039,2.104
		c0.44-1.967,1.984-3.355,3.321-4.753c3.34,1.495,13.504-2.911,16.19-3.916c4.192-0.336,7.435-3.338,11.127-5.037
		c0.319-0.992,0.656-1.958,1.001-2.915c-0.854-2.122-1.587-4.287-2.191-6.469c-2.614,1.423-5.296,2.708-7.961,4.02
		c0.388,4.304-5.589,3.148-7.668,1.208c-2.312-2.605,1.647-4.856,3.562-6.038c0.492,0.233,1.475,0.716,1.975,0.957
		c3.209-0.975,6.064-2.803,9.022-4.347c0.724-4.735,2.622-9.16,3.528-13.844c-2.95,1.889-6.374,3.485-8.315,6.529
		c-0.693,1-2.87,9.889-8.591,0.112c1.285-2.648,3.907-5.003,7.013-3.761c3.053-3.122,6.271-6.202,10.325-7.996
		c2.133-21.665-8.139-34.452-3.692-41.014c7.95,6.442,13.647,25.67,15.422,35.822c4.045-2.26,8.177-4.39,12.352-6.409
		c12.755-28.391,41.012-51.473,25.669-131.616c-4.001-16.313-5.72-8.525-12.153-29.602c-9.699-33.642-10.053-80.435,5.71-114.874
		c2.541-93.785-64.497-22.373-109.319-2.958c-13.121,5.967-36.781,6.669-42.506,12.766c-0.207,1.811,1.829,2.579,3.122,3.347
		c12.069,5.573,34.185,10.606,45.568,25.221c-14.698-3.847-29.085-8.772-43.343-13.982c2.186,18.173,5.176,48.854-4.865,57.213
		c-15.057-18.193-0.841-69.904-46.224-88.825c-55.798,28.242-89.913-13.856-136.938-31.949
		c-60.315-8.593-46.982,89.665-19.114,143.786c-52.163,22.662-56.061,88.292-93.129,122.619c-2.139,1.932-4.209,4.14-7.047,5.02
		c-6.504,8.434-18.493,40.153-32.121,65.346c-12.021,20.849-15.939,13.991-34.769,22.185c-14.569,5.855-15.92,19.992-13.878,35.511
		c1.254,6.938,2.616,40.044,17.898,83.279c30.678,93.191,29.053,84.951,62.586,122.99c16.926,21.97,31.7,48.511,43.196,51.796
		c0.681,47.807,97.479,101.241,131.59,84.012c9.054-35.413,0.562-46.403,7.927-43.188c9.138,3.259,17.435,17.788,21.236,28.084
		c-11.295,34.025,25.483,40.809,40.807,26.359c8.082-7.625,8.211-21.564,1.389-30.008c-17.329-26.815,9.827-31.199,17.251,5.529
		c-1.036,10.325-3.944,18.084-1.251,25.281c7.74-6.04,46.91-81.085-38.004-104.566c-32.318-8.65-67.934-5.506-77.957-3.234
		c-6.452,3.813-12.308,8.807-19.39,11.506c-14.417,6.894,22.655-34.006,53.737-28.68c-16.935-60.931-69.202-68.16-68.624-102.246
		c0.035-10.437-1.044-20.986-4.166-30.965c-23.704-27.807-35.963-51.086-106.171-41.92c32.41-14.89,62.112-18.83,92.413,6.599
		c-7.457-22.759-51.137-122.88-74.852-124.75c27.883-18.682,74.011,77.285,86.401,108.129c9.133,25.146,5.551,35.004,19.804,58.696
		c4.215,6.687,12.437,17.942,20.106,15.94c2.665-0.69,4.157-3.148,5.684-5.218c-23.185,0.425-33.575-79.163-17.165-95.061
		c9.307,5.577,2.973,24.669,6.564,48.277c2.717,20.149,12.93,38.814,27.222,53.107c1.553,1.699,4.339,0.932,5.667-0.673
		c4.307-4.965,5.714-18.516,10.92-12.585c20.533,20.87,55.549,44.99,82.382,68.65c2.156,1.742,3.856,4.494,6.883,4.735
		c24.035,4.159,29.69,26.99,54.366,18.441c2.001-0.863,4.028,0.371,5.917,1.009c7.91,3.355,16.19,7.202,25.022,6.245
		c34.124-3.084,35.672-76.685,39.22-84.383c2.621,12.343,0.366,49.16-0.31,61.663c16.875-59.263,37.315-70.831,62.914-87.229
		c-2.061,4.382-3.278,9.083-4.468,13.758c-38.904,15.409-38.441,51.028-62.491,94.311c-1.432-6.719-1.121-13.973-4.132-20.227
		c-4.068,9.04-6.369,23.292-19.226,27.636c-3.29,13.732-7.787,37.452-4.425,51.244c2.68,11.298,9.645,31.741,18.001,39.582
		c4.708,4.585,11.87-1.001,26.17,20.391c16.473,25.433,27.465,65.458,41.618,100.021c2.933-11.681,7.488-20.638,19.933-28.05
		c-0.584,11.858-20.919,33.766-14.577,45.767c1.893,3.661,5.863,25.75,31.345,42.86c18.525,11.568,26.492,5.435,27.136-3.994
		c1.129-6.947-4.904-12.622,11.636-49.562c18.41,35.253,4.197,52.133,24.505,68.814c21.144,17.805,62.251-2.973,46.258-62.75
		c32.556,13.363,25.962,31.003,15.207,65.105c49.764-17.853,10.888-73.503,9.039-83.52c30.57,19.32,34.797,59.784,10.859,81.519
		c-22.361,21.025-48.477,6.359-53.426,7.168c-15.107,2.245-22.866,22.29-64.311-10.29c-13.163,10.782-77.028-19.672-76.456-49.338
		c0.04-8.756,4.881-5.389-3.899-29.568c-13.324-34.549-43.483-86.861-64.311-118.505c-7.614-12.968-16.709-62.113-20.183-79.837
		c-3.226,6.314-11.662,9.574-18.019,5.986c-3.217-1.466-3.649-5.503-6.452-7.392c-10.477-7.663-45.574-22.469-57.221-27.343
		c-9.114-17.757-42.576-35.867-47.699-41.092c-6.805-6.728-12.731-14.448-20.563-20.063c-18.234-12.345-18.479,4.832-26.696,10.161
		c-6.486,4.08-14.37,4.477-21.762,5.434c1.131,8.84,12.729,37.33,30.111,59.697c16.693,21.041,28.177,22.835,36.296,26.696
		c89.118,41.407,83.622,122.724,21.408,136.472c-37.111,8.224-64.348-8.007-69.004-7.556c-43.921,1.975-91.984-28.442-124.12-58.204
		c-44.997-42.297-47.275-64.971-61.146-82.804c-27.087-32.752-55.021-78.446-57.1-120.515
		c-1.564-19.995-36.19-61.237-30.983-110.518c5.392-48.673,52.252-25.305,56.247-51.796c12.074-84.431-54.673-92.417-61.715-169.059
		c-9.113,2.095-21.858,11.861-28.007,18.553c-0.961,1-30.701,62.17-29.534,140.267c0.823,24.888-1.306,62.763-26.152,59.861
		c-3.588,7.151-6.219,15.258-12.516,20.589c-2.795,2.562-6.849,3.183-9.436,6.038c-16.396,16.418-41.852,7.481-53.926,6.702
		c-2.079-3.786-5.494-6.607-9.488-8.203c-4.666,6.012-11.938,10.118-19.64,10.144c-16.487,0.464-25.832-16.387-31.155-20.865
		c-16.297-15.829-29.603-45.786-26.851-70.427c3.124-28.438,19.592-22.456,34.881-50.157c34.876-64.301,6.976-199.906,7.314-233.983
		c0.8-2.654,6.543-17.408,12.3-22.53c7.697-6.211,13.2,2.384,37.555-24.66c-9.781-116.168-19.39-132.727,2.329-182.057
		c22.614-50.63,68.754-84.189,79.734-96.346c41.192-43.088,20.924-76.856,177.227-145.322
		c87.803-38.34,175.484-60.654,257.246-111.889c56.907-29.526,71.138-96.704,108.81-134.376
		C766.549,52.622,773.828,47.964,781.885,45.273 M737.843,104.815c-2.526,16.297,11.909,29.43,33.079,25.066
		c40.615-18.639-11.541-28.438-19.908-47.009C744.467,88.53,738.999,96.051,737.843,104.815 M707.266,145.717
		c-12.071,11.384,41.699,65.743,54.487,7.383c-14.125,0.958-32.029,3.747-42.049-8.582
		C715.607,143.914,710.82,143.034,707.266,145.717 M691.447,165.711c1.225,3.83,1.949,7.901,4.218,11.308
		c-0.621-0.768-1.225-1.544-1.82-2.329c-10.046-2.465-33.823,0.749-16.095,26.075C661.021,290.011,773.169,172.834,691.447,165.711
		 M646.586,200.644c-9.212,1.397-16.854,7.409-23.47,13.611c-6.269,6.582-18.528,13.665-18.821,19.045
		c1.538,5.086,16.751,1.157,22.012,8.996c2.553,4.08-0.569,8.393-1.277,12.481c0.267,2.268,1.156,4.416,1.829,6.598
		C678.832,292.661,681.299,194.979,646.586,200.644 M569.828,235.137c-5.425,1.19-9.937,5.046-12.748,9.73
		c-2.363,4.132-6.486,6.805-9.16,10.713c-26.012,34.349,52.672,30.962,57.851,19.787
		C614.893,259.743,589.813,230.661,569.828,235.137 M456.929,283.465c-0.03,35.496,9.178,50.176,34.83,25.436
		c41.077,0.506,30.736-10.729-1.302-35.632C478.916,275.176,467.211,277.643,456.929,283.465 M392.618,311.196
		c-9.862,37.819,15.35,42.261,50.269,51.986C478.024,323.842,394.248,364.493,392.618,311.196 M292.83,373.912
		c-41.501,40.465-38.073,66.031-79.113,104.549c-24.279,22.691-52.964,39.826-65.614,69.047
		c-31.222,72.748,18.031,179.755-2.898,198.868c-6.473,6.104-14.826,3.968-12.214,19.864c1.277,8.022,5.253,15.319,6.288,23.401
		c4.235,20.623,13.844,40.712,29.663,54.944c26.324,23.931,55.974,18.418,67.882,19.588c74.826,5.134,66.592-4.042,84.133-33.501
		c1.139-1.923,4.563-2.277,3.907-5.08c-1.829,1.673-2.976,4.33-5.589,4.925c-17.586,5.511-54.003,9.906-80.036,7.634
		c-21.281-2.445-18.619-7.002-22.65-10.29c-16.919-13.63-44.277-36.071-47.104-45.413c17.812,13.904,38.4,23.66,59.084,32.509
		c19.97,5.671,107.032,12.793,109.845-14.965c1.545-14.667,0.525-34.438,3.907-43.274c-21.27,3.605-42.644,6.624-64.113,8.789
		c-60.747,5.011-98.966-41.911-101.047-56.057c22.124,3.962,61.669,39.636,78.543,38.332c3.571-0.242,4.546-4.813,8.194-5.02
		c25.188-5.841,63.494-6.041,74.886-11.498c-1.665-16.656-3.64-33.277-5.883-49.855c-21.455,4.876-58.687,13.782-79.673,7.349
		c-26.69-8.053-46.714-8.683-68.65-50.519c-9.344-17.751-19.463-47.176-19.942-51.106c3.112,2.007,24.197,23.125,24.764,24.729
		c9.587,25.802,35.227,51.223,62.836,55.781c25.308,3.905,55.457,0.842,67.865-3.459c5.56-2.063,7.491-3.551,2.803-16.759
		c-11.523-29.822-18.942-31.925-55.168-77.802c9.514-1.071,30.476,17.487,36.839,23.435c0.026-0.776,0.069-2.329,0.095-3.105
		c21.953,24.373,133.575,44.889,171.025,44.085c24.58-0.999,20.252-7.585,33.277-6.064c23.774,3.211,35.001,45.016,43.464,43.576
		c3.151-4.316,1.454-21.184,2.708-43.101c57.854-31.988,78.684-130.171,94.043-139.508c9.371,2.887-32.387,124.671-75.809,149.315
		c-1.212,11.078-6.727,53.889-14.042,62.328c-8.435-18.941-21.451-33.953-36.21-44.559c-18.954-12.967-24.887-5.322-30.189-5.184
		c-88.16,5.623-72.598-3.162-102.746-8.229c-35.907-7.698-57.019-26.418-73.325-38.426c12.294,13.949,13.189,5.354,22.133,52.512
		c34.33,190.703-9.274,191.7-33.605,230.532c7.133,32.556,22.366,85.748,44.447,110.268c32.074,34.886,45.318-13.469,74.903-53.521
		c0.281-0.393,6.686-17.398,18.933-32.768c16.52-21.078,37.301-32.769,35.77-49.777c-47.203-45.802-128.388,5.138-159.096,39.194
		c-13.276-25.195,54.207-55.992,80.148-67.158c8.738,2.217,17.881,1.19,26.748,0.449c27.112-3.45,40.691-6.153,20.736-34.605
		c-7.201-8.104-61.811-22.685-75.033-19.761c-2.288-0.101-13.421-2.027-13.594-4.365c18.961-9.301,81.118-8.382,96.752,1.216
		c4.726-12.141,16.611-41.156,27.291-48.406c-3.83-9.859-15.569-15.707-25.773-13.309c-39.257,7.734-72.024-4.516-78.448-14.034
		c3.976-1.423,8.487-0.276,12.291-2.381c-3.183-2.769-7.427-3.502-11.161-5.21c5.701,0.44,11.282,1.777,16.923,2.648
		c44.819,8.02,77.766-10.236,168.395,36.96c10.083-8.85,18.415-19.416,27.024-29.654c36.599-44.068,52.965-35.753,64.648-44.921
		c31.635-23.066-6.566-108.82,4.571-141.354c5.745,10.842,16.238,81.929,21.546,97.123c30.135-59.586-9.66-158.837-57.549-177.063
		c-45.578-22.545-94.907-87.286-154.189-75.706c-7.953,10.057-10.756,22.806-15.966,34.243c-9.466,6.951-45.156-12.426-55.229-17.82
		c-44.197-24.219-38.726-30.02-62.836-27.67C320.302,351.908,305.182,362.103,292.83,373.912 M641.963,677.372
		c-32.192,16.357-57.45,63.109-30.465,80.674c24.29-29.283,39.36-31.642,71.367-32.363c-2.665-16.88-4.813-33.915-7.841-50.692
		C664.596,669.618,652.003,672.421,641.963,677.372 M343.099,756.261C343.522,756.718,343.522,756.718,343.099,756.261
		 M115.793,783.44c-6.321,17.488-9.749,48.308,2.493,70.358c16.916,28.932,54.872,49.287,86.91,58.67
		c27.311,9.015,64.985-27.754,81.743-35.451c-32.141-3.361-122.577,11.902-123.422-16.061
		C145.396,854.074,125.626,804.223,115.793,783.44 M105.485,862.457c-0.118,23.986-0.266,97.141-11.455,118.169
		c-6.718,14.217,1.958,30.559-12.524,47.069c-8.378,9.146-12.591,5.289-19.494,15.905c-14.375,22.15-5.828,68.266,10.161,69.728
		c-15.696-14.262,5.042-42.095,12.628-44.326c0.5,3.813-0.854,7.487-1.397,11.222c-9.309,55.486,11.235,90.275,32.828,36.624
		c12.942-30.169,9.974-31.258,12.153-46.819c0-1.415,1.854-3.209,3.01-1.725c2.769,3.976,3.183,9.048,4.175,13.68
		c7.241,45.131-0.261,35.692,8.643,50.416c11.555,17.296,27.627,14.662,36.882-2.57c15.811-30.15-1.453-61.692-3.312-66.985
		c8.34,2.622,35.415,36.123,25.902,43.36c27.581-6.71,24.532-31.983,14.241-58.601c-11.875-30,6.082-54.885,7.677-72.497
		c0.414-3.761-1.665-7.427-0.38-11.144c4.451-19.097,15.095-35.908,21.736-54.211c-7.266,3.513-17.752,12.704-31.25,20.994
		C195.774,942.194,145.926,918.335,105.485,862.457 M872.245,929.339c2.516,31.464,3.951,87.138-14.568,112.657
		c11.946-2.881,24.212-4.175,36.477-4.606C900.045,1004.4,886.004,959.984,872.245,929.339 M855.296,1045.274
		c-4.956,2.603-15.712,13.508-23.427,14.603c-2.708-0.181-1.432-3.657-1.397-5.322c-3.493,1.837-6.969,3.666-10.428,5.555
		c0.285,4.019,0.311,8.065-0.147,12.084c21.449-11.961,42.345-16.858,69.702-10.575c0.776-7.297,1.984-14.551,3.959-21.624
		C880.681,1040.469,867.742,1041.841,855.296,1045.274 M856.072,1062.326c-13.663,2.087-25.816,9.074-37.598,15.879
		c-0.595,3.675,0.207,7.349,0.388,11.023c23.687-9.85,42.089-10.343,70.211-10.653c-0.103-4.796,0.009-9.591,0.293-14.379
		C878.472,1061.817,867.147,1060.489,856.072,1062.326 M189.799,1080.138c1.363,16.259,3.002,32.535,2.536,48.872
		C207.784,1095.072,193.087,1087.717,189.799,1080.138 M862.662,1081.932c-15.181,0.845-30.241,4.089-44.188,10.204
		c-0.242,1.311-0.492,2.622-0.724,3.968c29.385-3.979,46.124,0.423,74.464,7.884c-1.432-7.539-2.544-15.146-3.019-22.806
		C880.344,1081.225,871.486,1081.345,862.662,1081.932 M132.043,1089.151c-9.706,30.484-11.507,32.041-6.331,40.971
		c3.019,5.132,9.238,7.28,12.015,12.619c1.656-7.53-4.106-13.292-6.469-19.839c-1.553-3.89-0.035-7.918,0.923-11.722
		C133.285,1103.884,132.604,1096.466,132.043,1089.151 M629.999,1113.57c1.509,1.898,3.097,3.761,4.718,5.581
		c19.416-1.082,16.348-0.964,20.451-3.157c0.75,0.535,1.518,1.087,2.286,1.656c3.312-0.397,6.831,0.129,9.988-1.156
		C655.056,1114.657,642.515,1113.803,629.999,1113.57 M708.611,1142.319c-4.658,0.029-25.041,14.277,18.95,12.058
		c27.742-1.966,62.47-11.38,15.69-23.815C732.357,1136.039,721.075,1141.982,708.611,1142.319 M583.922,1484.879
		c16.147-13.097,18.113-29.898-0.828-45.534C582.067,1454.508,583.24,1469.715,583.922,1484.879 M922.022,1575.472
		c-3.369,14.328-4.315,54.121,17.63,59.274c-0.719-3.164-13.596-59.041-15.362-63.595
		C923.273,1572.418,922.333,1573.824,922.022,1575.472 M1003.291,1579.025c-0.664,19.123-3.045,38.133-4.649,57.187
		C1018.976,1604.223,1012.54,1590.683,1003.291,1579.025z"/>
	<path style="fill:orange" d="M520.464,370.798c-1.791,7.502-23.116,22.424-35.097,42.239c-8.252,14.171-3.344,16.227-2.044,39.384
		c0.112,2.639,0.285,5.512-1.363,7.78c-9.188-6.639-20.358-31.985-40.755-38.935c-3.812-1.604-8.332-0.181-11.825-2.631
		c-37.483-19.455-106.791-6.934-104.523-44.309c13.719,14.961,70.634,8.164,134.152,36.796c13.765-7.483,40.5-13.569,36.589-32.88
		C514.95,370.532,516.194,370.548,520.464,370.798z"/>
	<path style="fill:orange" d="M564.316,394.388c22.699,29.671,7.037,56.577-27.498,69.107c-13.68,5.063-24.065,18.967-23.496,33.769
		c0.868,24.564,2.147,53.167-7.461,62.629c-0.612-16.708-2.881-34.303-12.567-48.415c-12.27-18.23-36.418-22.336-49.708-20.537
		c-60.169,19.19-142.402-17.943-160.278-76.775c46.321,44.807,103.943,74.315,163.202,50.347
		c46.969,30.105,48.606-0.609,75.188-14.473C540.992,439.691,566.293,430.167,564.316,394.388z"/>
	<path style="fill:orange" d="M597.869,446.521c33.434,10.94-18.136,82.16-40.781,108.974c-6.182,7.555-26.656,23.052-24.738,51.304
		c0.474,13.758,6.355,25.474,0.75,27.101c-7.397,2.039-13.538-12.149-24.376-25.549c-49.081-61.156-130.258-55.156-204.699-62.802
		c-19.962-7.963-55.346-36.262-49.467-82.839c15.91,41.402,51.594,65.422,80.984,67.511c29.866,2.604,70.558,2.872,95.855,13.973
		c3.536,1.44,6.685,4.218,10.687,4.157c15.128,0.048,27.81-2.196,73.161,34.381C544.147,538.251,597.126,506.871,597.869,446.521z"
		/>
	<path style="fill:orange" d="M777.158,775.409c5.745-4.744,11.032-10.04,16.966-14.56c-2.995,8.333-7.67,18.377,0.681,30.646
		c5.124-2.036,10.187-5.46,15.948-4.744c-0.276,11.408-21.948,30.451,11.791,30.612
		C845.429,860.005,744.979,802.044,777.158,775.409z"/>
	<path style="fill:orange" d="M648.035,770.674c14.177,8.861,15.832,15.906,11.817,17.639c-4.882,2.001-10.075-0.138-15.034-0.483
		c-4.25,0.611-30.047,5.938-27.006,0.216C621.685,781.923,641.4,773.606,648.035,770.674z"/>
	<path style="fill:orange" d="M532.894,772.278c4.727,3.536,8.453,8.168,12.481,12.455c2.743,3.062,6.711,4.597,9.686,7.401
		c31.724,26.653-33.365,63.867-49.113,60.395c-7.189-1.745,8.206-16.906,10.187-16.837c23.943-1.77,44.676-2.308,21.236-52.563
		C535.792,779.541,533.739,776.134,532.894,772.278z"/>
	<path style="fill:orange" d="M655.099,798.353c6.467-2.561,4.97,9.175,5.753,13.965c-8.128,11.202-27.097,10.292-38.245,17.268
		c-2.288,1.437-22.18,7.613-2.113-9.022C632.359,811.142,651.034,799.799,655.099,798.353z"/>
	<path style="fill:orange" d="M712.277,817.536c15.551,18.694,37.884-6.969,41.704,23.159c39.263-15.303,21.264,52.193,14.284,55.35
		c-1.899-16.289,7.336-27.616,0.871-39.298c-9.085-16.403-44.401-7.791-53.219-23.616
		C713.278,828.361,713.174,822.78,712.277,817.536z"/>
	<path style="fill:orange" d="M661.879,825.747c16.673,28.216-65.032,26.755-27.222,68.909C598.865,893.481,626.356,824.886,661.879,825.747z"/>
	<path style="fill:orange" d="M580.73,836.745c12.38,8.106,9.417,28.633,3.372,40.496C540.245,912.168,577.715,862.257,580.73,836.745z"/>
	<path style="fill:orange" d="M671.85,845.758c8.092,7.352-0.882,15.446,2.752,24.436c1.503,5.043,4.392,23.45,0.362,26.644
		C668.214,897.306,654.281,859.047,671.85,845.758z"/>
	<path style="fill:orange" d="M726.751,854.039c6.204,5.658,23.825,22.155,21.391,30.275C744.336,889.997,725.858,877.763,726.751,854.039z"/>
	<path style="fill:orange" d="M549.756,863.725c8.944,9.43-22.266,20.439-33.363,36.339c-2.652,3.492-8.337,46.3-8.056,70.677
		c0.3,31.361,7.776,60.525,27.86,84.633c2.803,3.027,6.159,5.477,9.117,8.358c7.513-0.983,15.06-1.716,22.625-2.208
		c-46.804-37.171-57.237-107.748-23.72-145.089c6.313,20.765-15.138,58.893,2.579,84.805c-2.365,15.149,23.054,39.009,39.643,59.938
		c35.885,0.927,64.403,9.506,95.768,26.791c0.431-0.25,1.285-0.75,1.708-1.001c2.432,1.751,5.632,3.26,6.512,6.383
		c0.484,3.961-8.341,5.323-11.593,2.191c-1.018-1.199-0.224-2.734-0.06-4.054c-27.819-15.042-52.506-26.478-90.274-27.671
		c1.13,1.967,2.613,3.864,2.984,6.176c0.813,3.522-9.118,2.46-20.287-6.029c-7.866,0.44-15.733,1.009-23.539,2.053
		c4.201,4.666,9.799,9.341,10.135,16.095c17.268-1.061,34.631-1.294,51.882,0.293c1.061-1.38,2.139-2.743,3.226-4.089
		c3.062,1.018,6.892,1.898,8.073,5.356c3.752,0.587,7.495,1.225,11.239,1.889c1.466-1.82,3.338-3.226,5.313-4.451
		c2.225,1.656,5.106,3.562,4.615,6.78c1.501,0.414,3.01,0.819,4.528,1.242c1.277-1.121,2.562-2.217,3.864-3.295
		c2.269,1.967,5.839,3.899,5.607,7.366c-1.82,3.873-8.686,4.028-10.627,0.104c-37.428-11.935-83.573-6.802-118.307-8.177
		c6.038-0.914,12.119-1.466,18.191-2.053c-19.379-6.2-45.536-23.984-48.63-44.059c-0.552-2.303,0.293-5.054-1.302-6.987
		c-10.627-13.024-14.819-30.051-16.069-46.5C476.098,934.128,501.732,878.763,549.756,863.725z"/>
	<path style="fill:orange" d="M789.811,874.645c46.893,4.451,11.131,23.359,1.768,12.265C788.716,883.503,789.199,878.734,789.811,874.645z"/>
	<path style="fill:orange" d="M590.106,897.037c1.268-2.777,4.002-4.408,6.34-6.184c17.682,4.176,18.091,5.318,20.529,8.349
		C611.239,905.321,586.788,903.899,590.106,897.037z"/>
	<path style="fill:orange" d="M833.836,903.126c23.624,30.036,5.996,108.81-6.383,120.222c-5.117-7.695,4.841-50.374,7.306-59.567
		c0.586-7.176-0.5-14.413,0.198-21.607c-2.945,22.417-4.126,43.416-20.02,42.998c27.344-23.711-20.57-84.671,9.73-75.516
		c2.26,5.762,4.925,11.36,7.03,17.191C829.877,919.126,827.85,909.561,833.836,903.126z"/>
	<path style="fill:orange" d="M777.986,913.382c7.556-4.494,16.759-4.856,25.273-3.735c19.174,29.006-31.555,33.029-28.257,65.735
		C760.203,953.998,759.428,924.032,777.986,913.382 M797.842,921.317c-5.365-2.036-11.101-3.95-16.906-3.088
		C758.893,921.111,783,972.545,797.842,921.317z"/>
	<path style="fill:orange" d="M564.213,911.467c6.685,1.121,13.723,2.001,19.597,5.641C602.228,927.816,536.142,950.228,564.213,911.467z"/>
	<path style="fill:orange" d="M779.012,926.958c3.347-1.742,6.762-4.071,10.704-3.864c5.778,1.124-0.896,14.339-6.926,13.559
		C779.366,934.799,779.547,930.279,779.012,926.958z"/>
	<path style="fill:orange" d="M614.128,929.003c8.807-7.022,26.389-3.108,34.174-5.167c16.34-0.024,36.1,44.625,32.82,52.736
		c-3.838-2.286-6.141-6.219-8.66-9.755C647.674,970.934,601.213,939.504,614.128,929.003 M662.077,946.538
		c0.155-2.096,0.31-4.183,0.492-6.262C619.258,904.171,627.589,980.134,662.077,946.538z"/>
	<path style="fill:orange" d="M642.972,944.097c1.095-2.683,3.718-4.209,5.908-5.9c2.838,1.673,6.141,3.062,8.004,5.934
		C661.457,949.995,639.801,950.54,642.972,944.097z"/>
	<path style="fill:orange" d="M130.93,945.175C131.405,945.581,131.405,945.581,130.93,945.175z"/>
	<path style="fill:orange" d="M131.198,946.245c8.962,5.762,19.407,8.582,29.473,11.791c18.458,5.65,39.806,1.923,54.349-11.075
		c-11.003,21.393-73.011,53.747-83.693,12.585C130.068,955.198,130.473,950.635,131.198,946.245z"/>
	<path style="fill:orange" d="M583.577,954.025c6.889-0.147,33.21,0.567,37.987,5.469c-5.068,4.231-12.115,4.943-33.855,9.816
		c6.167,3.95,13.68,7.056,17.329,13.792C595.555,991.208,534.274,964.496,583.577,954.025z"/>
	<path style="fill:orange" d="M600.233,995.307c5.047,5.174,6.068,8.278-2.708,10.92c-8.492,1.988-18.898,1.218-18.898-1.82
		C580.272,1000.302,594.414,996.905,600.233,995.307z"/>
	<path style="fill:orange" d="M612.274,1007.753c-2.207,7.295-24.358,28.71-32.475,30.638c0.688-5.377,10.487-17.976,12.472-19.968
		C595.706,1015.916,606.881,1008.15,612.274,1007.753z"/>
	<path style="fill:orange" d="M631.879,1012.238c10.994,8.563-2.567,15.292-10.695,25.316c-1.636,2.395-16.223,26.105-17.605,17.691
		C602.368,1044.967,614.049,1017.612,631.879,1012.238z"/>
	<path style="fill:orange" d="M724.905,1082.976c7.858-0.966,15.828-0.656,23.591-2.441C740.965,1083.183,732.814,1084.131,724.905,1082.976z"/>
	<path style="fill:orange" d="M661.309,1094.292c0.768-2.424,3.157-3.735,4.977-5.296c1.829,1.423,4.641,2.544,4.908,5.184
		C670.18,1097.822,660.798,1098.004,661.309,1094.292z"/>
	<path style="fill:orange" d="M597.24,1099.433c17.044-0.302,34.105,0.586,50.985,2.984c5.45-3.589,19.243-0.901,15.707,3.951
		c-1.898,2.777-5.529,4.149-8.807,3.786c-2.381-0.198-3.666-2.743-6.012-2.993c-46.672-7.283-62.482-9.547-117.461,18.312
		C551.801,1108.413,588.864,1099.855,597.24,1099.433z"/>
	<path style="fill:orange" d="M692.568,1105.945c-1.458-3.027,2.846-4.494,4.779-5.874c1.734,1.716,5.684,3.743,4.002,6.598
		C698.701,1108.283,694.931,1107.92,692.568,1105.945z"/>
	<path style="fill:orange" d="M680.63,1107.032c-0.768-3.148,2.682-4.917,4.658-6.659c1.803,1.872,4.77,3.735,4.313,6.745
		C687.652,1109.965,682.657,1109.654,680.63,1107.032z"/>
	<path style="fill:orange" d="M846.015,1130.778c2.898,16.833-3.012,47.889-15.854,64.829c-12.85-9.995,2.907-17.763-44.352,37.84
		c-6.693,7.72-13.421,15.491-21.314,22.029c11.863-20.933,46.185-89.594,54.504-90.093c4.995,2.826,7.509,17.91,14.413,10.411
		c6.231-7.274,3.319-28.666,3.235-40.212C837.557,1130.323,843.881,1120.347,846.015,1130.778z"/>
	<path style="fill:orange" d="M608.099,1161.045c12.248-1.273,14.997,30.537,24.22,36.882c0.664-3.045,1.087-6.141,2.053-9.1
		c3.571,5.631,11.907,41.439,40.919,68.124c-20.068-3.193-32.648-24.519-40.013-43.791c-0.742-2.182-3.174-3.028-5.003-1.57
		C624.211,1216.57,608.923,1174.913,608.099,1161.045z"/>
	<path style="fill:orange" d="M689.851,1227.788c2.485-16.204,24.055,59.343,36.304,69.806c0,0,15.36-37.084,15.362-37.089
		c3.096,12.144,4.586,29.021-6.262,35.399c-2.941,1.846-6.486,2.122-9.738,3.148c-11.838,4.773-28.207-40.141-32.207-52.365
		C691.662,1240.528,689.23,1234.249,689.851,1227.788z"/>
	<path style="fill:orange" d="M874.6,1373.515c-41.985,2.963-54.187,22.746-79.423,49.855C787.483,1397.601,866.234,1344.664,874.6,1373.515z"/>
</g>
</svg>
